<svg width="368" height="224" viewBox="0 0 368 224" fill="none" xmlns="http://www.w3.org/2000/svg">
<circle cx="184" cy="112" r="184" fill="url(#paint0_linear_1056_28758)"/>
<path d="M187.513 194.542C188.268 194.945 189.114 195.119 189.956 195.043C190.799 194.968 191.605 194.646 192.286 194.114L244.039 153.565C244.612 153.113 245.078 152.525 245.4 151.848C245.721 151.17 245.888 150.423 245.888 149.664C245.888 148.906 245.721 148.158 245.4 147.481C245.078 146.803 244.612 146.215 244.039 145.764L192.295 104.954C191.615 104.419 190.809 104.095 189.966 104.018C189.122 103.941 188.275 104.114 187.519 104.517C186.763 104.921 186.127 105.54 185.682 106.304C185.238 107.069 185.002 107.95 185 108.849V125.165H122.568C121.967 125.164 121.373 125.288 120.818 125.532C120.263 125.776 119.759 126.133 119.335 126.584C118.911 127.035 118.574 127.57 118.345 128.16C118.116 128.749 117.999 129.38 118 130.018V169.048C117.999 169.685 118.117 170.316 118.347 170.904C118.576 171.492 118.913 172.027 119.337 172.477C119.761 172.927 120.265 173.283 120.82 173.526C121.374 173.769 121.968 173.893 122.568 173.891H185V190.207C185.001 191.106 185.236 191.986 185.68 192.752C186.123 193.517 186.758 194.137 187.513 194.542Z" fill="url(#paint1_linear_1056_28758)"/>
<path d="M176.265 28.4904C175.55 28.1091 174.751 27.945 173.954 28.0162C173.157 28.0875 172.395 28.3914 171.75 28.8942L120 69.4408C119.457 69.8673 119.016 70.4229 118.711 71.0631C118.406 71.7033 118.247 72.4104 118.246 73.1276C118.245 73.8449 118.402 74.5525 118.705 75.1938C119.007 75.8351 119.447 76.3923 119.988 76.8207L171.741 117.622C172.384 118.13 173.147 118.438 173.945 118.511C174.743 118.585 175.544 118.422 176.26 118.039C176.976 117.657 177.577 117.071 177.997 116.347C178.417 115.623 178.64 114.789 178.639 113.939V97.3603H246.454C247.022 97.3606 247.584 97.2421 248.109 97.0116C248.633 96.781 249.11 96.4429 249.511 96.0165C249.913 95.5902 250.231 95.084 250.449 94.5269C250.666 93.9698 250.777 93.3727 250.777 92.7698V53.7592C250.777 53.1563 250.666 52.5592 250.449 52.0021C250.231 51.445 249.913 50.9389 249.511 50.5125C249.11 50.0862 248.633 49.7481 248.109 49.5175C247.584 49.2869 247.022 49.1684 246.454 49.1687H178.639V32.5855C178.638 31.7367 178.415 30.9051 177.996 30.1824C177.577 29.4597 176.978 28.8741 176.265 28.4904Z" fill="url(#paint2_linear_1056_28758)"/>
<defs>
<linearGradient id="paint0_linear_1056_28758" x1="-45.6913" y1="44.698" x2="256.859" y2="342.309" gradientUnits="userSpaceOnUse">
<stop offset="0.109843" stop-color="#F4A752"/>
<stop offset="1" stop-color="#FAECD4" stop-opacity="0.7"/>
</linearGradient>
<linearGradient id="paint1_linear_1056_28758" x1="256.899" y1="150" x2="110.466" y2="150" gradientUnits="userSpaceOnUse">
<stop/>
<stop offset="1" stop-opacity="0"/>
</linearGradient>
<linearGradient id="paint2_linear_1056_28758" x1="103.873" y1="80.5" x2="263.492" y2="78.7264" gradientUnits="userSpaceOnUse">
<stop/>
<stop offset="1" stop-opacity="0"/>
</linearGradient>
</defs>
</svg>
