<svg xmlns="http://www.w3.org/2000/svg" width="14.001" height="14" viewBox="0 0 14.001 14"><path d="M572.864,336a.856.856,0,0,1-.864-.844V324.193a.856.856,0,0,1,.864-.843h2.248v-.843a.519.519,0,0,1,1.037,0v.843h5.876v-.843a.519.519,0,0,1,1.037,0v.843h2.074a.856.856,0,0,1,.866.843v10.964a.857.857,0,0,1-.866.844Zm.173-1.013h11.926v-7.253H573.036Zm0-8.265h11.926v-2.362h-1.9v.843a.519.519,0,0,1-1.037,0v-.843h-5.876v.843a.519.519,0,0,1-1.037,0v-.843h-2.075Zm4.149,6.409a.506.506,0,1,1,0-1.012h3.8a.506.506,0,1,1,0,1.012Zm0-2.361a.506.506,0,1,1,0-1.013h3.8a.506.506,0,1,1,0,1.013Z" transform="translate(-572 -322)" fill="#889da8"/></svg>