<svg width="371" height="282" viewBox="0 0 371 282" fill="none" xmlns="http://www.w3.org/2000/svg">
<path d="M54.1287 253.699C126.298 291.434 243.311 291.434 315.48 253.699C387.65 215.964 387.65 154.869 315.48 117.17C243.311 79.4704 126.298 79.4353 54.1287 117.17C-18.0409 154.905 -18.0409 215.991 54.1287 253.699Z" fill="#F5F5F5"/>
<path d="M93.9958 80.269L111.389 70.2299L93.9958 60.1907L76.4448 70.2299L93.9958 80.269Z" stroke="#EBEBEB" stroke-width="1.08419" stroke-linecap="round" stroke-linejoin="round"/>
<path d="M80.4902 70.2386L94.0045 31.1789V78.0401L80.4902 70.2386Z" fill="#E0E0E0"/>
<path d="M94.0045 78.0401L107.51 70.2386L94.0045 31.1789V78.0401Z" fill="#E6E6E6"/>
<path d="M72.7415 92.5196L90.1346 82.4804L72.7415 72.4413L55.1906 82.4804L72.7415 92.5196Z" stroke="#EBEBEB" stroke-width="1.08419" stroke-linecap="round" stroke-linejoin="round"/>
<path d="M59.2361 82.4892L72.7416 24.4832V90.2906L59.2361 82.4892Z" fill="#E0E0E0"/>
<path d="M72.7416 90.2906L86.2471 82.4892L72.7416 24.4832V90.2906Z" fill="#E6E6E6"/>
<path d="M51.4873 104.77L68.8803 94.731L51.4873 84.6918L33.9275 94.731L51.4873 104.77Z" stroke="#EBEBEB" stroke-width="1.08419" stroke-linecap="round" stroke-linejoin="round"/>
<path d="M37.9818 94.7398L51.4873 60.1907V102.541L37.9818 94.7398Z" fill="#E0E0E0"/>
<path d="M51.4873 102.541L64.9928 94.7398L51.4873 60.1907V102.541Z" fill="#E6E6E6"/>
<path d="M30.2331 117.021L47.6261 106.982L30.2331 96.9425L12.6733 106.982L30.2331 117.021Z" stroke="#EBEBEB" stroke-width="1.08419" stroke-linecap="round" stroke-linejoin="round"/>
<path d="M16.7189 106.99L30.2331 48.335V114.792L16.7189 106.99Z" fill="#E0E0E0"/>
<path d="M30.233 114.792L43.7385 106.99L30.233 48.335V114.792Z" fill="#E6E6E6"/>
<path d="M262.038 66.9215L354.795 120.47" stroke="#EBEBEB" stroke-width="1.08419" stroke-miterlimit="10" stroke-linecap="round"/>
<path d="M354.795 114.792C354.682 108.07 354.211 101.359 353.382 94.6872C352.504 87.4386 350.749 75.2056 343.773 71.1689C336.796 67.1322 334.163 74.4334 333.154 78.0225C331.838 82.6823 325.002 79.7338 324.054 72.0552C323.106 64.3767 322.483 39.9106 314.287 35.1981C306.091 30.4857 303.449 41.85 302.519 45.0267C300.685 51.2661 295.306 49.5461 293.55 45.4128C291.795 41.2796 287.004 40.2704 285.196 46.0885C283.388 51.9067 282.274 58.5848 276.421 55.1536C271.278 52.1436 273.639 46.6589 268.628 44.0526C264.662 41.9992 262.819 51.7926 262.819 61.7001L354.795 114.792Z" fill="#E0E0E0"/>
<path d="M348.055 63.7272C348.055 64.7978 347.09 65.1049 345.914 64.4292L338.893 60.3574C338.316 60.0303 337.823 59.5741 337.451 59.0245C337.08 58.4749 336.841 57.8469 336.752 57.1894C336.752 56.1276 337.718 55.8117 338.893 56.4962L345.914 60.568C346.491 60.8932 346.984 61.3477 347.356 61.8959C347.727 62.444 347.967 63.0709 348.055 63.7272Z" fill="#E6E6E6"/>
<path d="M319.236 29.301C319.236 30.3716 318.28 30.6787 317.095 30.003L310.075 25.9312C309.496 25.6057 309.002 25.1499 308.63 24.6001C308.258 24.0502 308.02 23.4213 307.933 22.7633C307.933 21.7014 308.89 21.3855 310.075 22.07L317.095 26.1418C317.673 26.4659 318.167 26.9202 318.539 27.4685C318.91 28.0169 319.149 28.6443 319.236 29.301Z" fill="#E6E6E6"/>
<path d="M296.411 35.6369C296.411 36.7075 295.455 37.0146 294.279 36.3389L287.259 32.2671C286.68 31.9415 286.186 31.4858 285.814 30.9359C285.442 30.386 285.204 29.7572 285.117 29.0991C285.117 28.0373 286.074 27.7214 287.259 28.4059L294.279 32.4777C294.855 32.8033 295.347 33.2582 295.717 33.8064C296.087 34.3546 296.325 34.9812 296.411 35.6369Z" fill="#E6E6E6"/>
<path d="M274.771 37.7343C274.771 38.8049 273.814 39.112 272.63 38.4275L265.609 34.3645C265.033 34.0369 264.541 33.5804 264.171 33.0308C263.801 32.4812 263.564 31.8534 263.477 31.1965C263.477 30.1347 264.433 29.8188 265.609 30.5033L272.63 34.5663C273.207 34.8929 273.701 35.3489 274.073 35.8986C274.444 36.4483 274.683 37.0766 274.771 37.7343Z" fill="#E6E6E6"/>
<path d="M258.176 59.0148V1" stroke="#EBEBEB" stroke-width="1.08419" stroke-miterlimit="10" stroke-linecap="round"/>
<path d="M33.3396 187.339C33.3396 187.339 34.7788 174.456 30.7859 162.188C27.03 150.587 19.4831 144.435 14.9111 142.593C6.26723 139.144 5.49498 148.665 11.9713 155.256C16.7188 160.1 28.1445 170.086 30.1102 187.023L33.3396 187.339Z" fill="#90CAF9"/>
<path opacity="0.7" d="M33.3396 187.339C33.3396 187.339 34.7788 174.456 30.7859 162.188C27.03 150.587 19.4831 144.435 14.9111 142.593C6.26723 139.144 5.49498 148.665 11.9713 155.256C16.7188 160.1 28.1445 170.086 30.1102 187.023L33.3396 187.339Z" fill="white"/>
<path d="M12.5768 145.252C17.7982 148.762 31.8302 158.897 32.3392 187.242" stroke="#FAFAFA" stroke-width="1.08419" stroke-miterlimit="10" stroke-linecap="round"/>
<path d="M29.6627 196.141C26.9774 183.153 21.4927 178.44 11.6905 173.421C7.49577 171.28 2.58149 168.893 0.808842 166.164C-0.963807 163.434 -0.0687062 159.766 5.96883 159.845C16.9996 159.994 29.5661 173.289 31.2422 187.857L29.6627 196.141Z" fill="#90CAF9"/>
<path opacity="0.8" d="M29.6627 196.141C26.9774 183.153 21.4927 178.44 11.6905 173.421C7.49577 171.28 2.58149 168.893 0.808842 166.164C-0.963807 163.434 -0.0687062 159.766 5.96883 159.845C16.9996 159.994 29.5661 173.289 31.2422 187.857L29.6627 196.141Z" fill="white"/>
<path d="M5.0387 162.671C13.3666 163.803 26.5211 173.509 30.6982 190.752" stroke="#FAFAFA" stroke-width="1.08419" stroke-miterlimit="10" stroke-linecap="round"/>
<path d="M337.323 181.257C340.701 174.764 343.325 156.546 338.981 148.121C334.637 139.697 328.179 140.372 327.178 143.102C326.301 145.62 328.468 150.122 331.276 155.484C334.084 160.846 336.454 172.333 333.795 177.686L337.323 181.257Z" fill="#90CAF9"/>
<path opacity="0.7" d="M337.323 181.257C340.701 174.764 343.325 156.546 338.981 148.121C334.637 139.697 328.179 140.372 327.178 143.102C326.301 145.62 328.468 150.122 331.276 155.484C334.084 160.846 336.454 172.333 333.795 177.686L337.323 181.257Z" fill="white"/>
<path d="M331.443 143.54C334.207 145.761 342.123 159.336 336.586 177.967" stroke="#FAFAFA" stroke-width="1.08419" stroke-miterlimit="10" stroke-linecap="round"/>
<path d="M336.252 188.137C334.216 184.066 329.758 177.326 332.794 172.701C335.831 168.077 339.008 172.166 341.447 169.147C343.887 166.128 341.096 161.249 343.202 158.617C347.274 153.439 350.223 159.45 353.417 158.661C355.725 158.09 358.296 152.974 364.939 153.597C371.582 154.22 371.249 159.485 368.291 161.96C365.334 164.435 361.824 166.901 364.105 170.613C366.124 173.904 367.168 179.985 360.262 182.346C353.663 184.601 356.927 187.462 355.874 190.691C354.821 193.92 348.59 196.983 341.965 194.491L336.252 188.137Z" fill="#90CAF9"/>
<path opacity="0.8" d="M336.252 188.137C334.216 184.066 329.758 177.326 332.794 172.701C335.831 168.077 339.008 172.166 341.447 169.147C343.887 166.128 341.096 161.249 343.202 158.617C347.274 153.439 350.223 159.45 353.417 158.661C355.725 158.09 358.296 152.974 364.939 153.597C371.582 154.22 371.249 159.485 368.291 161.96C365.334 164.435 361.824 166.901 364.105 170.613C366.124 173.904 367.168 179.985 360.262 182.346C353.663 184.601 356.927 187.462 355.874 190.691C354.821 193.92 348.59 196.983 341.965 194.491L336.252 188.137Z" fill="white"/>
<path d="M365.852 156.581C358.656 158.511 341.421 172.517 339.964 190.094" stroke="#FAFAFA" stroke-width="1.08419" stroke-miterlimit="10" stroke-linecap="round"/>
<path d="M360.665 175.036C357.111 174.228 348.081 174.114 344.703 175.755" stroke="#FAFAFA" stroke-width="1.08419" stroke-miterlimit="10" stroke-linecap="round"/>
<path d="M346.712 160.161C346.712 160.161 349.345 165.26 348.968 169.551" stroke="#FAFAFA" stroke-width="1.08419" stroke-miterlimit="10" stroke-linecap="round"/>
<path d="M248.55 110.36C247.373 106.288 245.271 102.542 242.407 99.4171C239.022 95.7258 235.063 92.6054 230.683 90.1765C225.597 87.2956 220.189 85.0246 214.571 83.4106C208.382 81.6244 202.034 80.4487 195.616 79.9004C188.987 79.2949 182.316 79.2949 175.687 79.9004C169.272 80.4487 162.926 81.6244 156.74 83.4106C151.119 85.023 145.708 87.294 140.62 90.1765C136.24 92.6266 132.284 95.7677 128.905 99.4786C126.043 102.606 123.941 106.35 122.762 110.422C121.713 114.188 121.713 118.169 122.762 121.935C123.932 126.008 126.035 129.752 128.905 132.869C132.286 136.584 136.245 139.728 140.629 142.18C145.711 145.06 151.116 147.328 156.732 148.937C162.92 150.731 169.268 151.919 175.687 152.483C182.316 153.079 188.986 153.079 195.616 152.483C202.038 151.916 208.389 150.726 214.58 148.928C220.195 147.32 225.601 145.051 230.683 142.171C235.068 139.721 239.027 136.577 242.407 132.861C245.273 129.74 247.375 125.997 248.55 121.926C249.599 118.142 249.599 114.144 248.55 110.36Z" fill="#37474F"/>
<path d="M121.972 110.378H249.331V116.872L121.972 116.512V110.378Z" fill="#37474F"/>
<path d="M175.687 74.0823L185.638 110.36L156.74 77.6276C162.925 75.8294 169.271 74.642 175.687 74.0823Z" fill="#455A64"/>
<path d="M195.616 74.0823L185.664 110.36L175.713 74.0647C182.334 73.4666 188.996 73.4725 195.616 74.0823Z" fill="#455A64"/>
<path d="M214.571 77.6276L185.664 110.36L195.616 74.0648C202.035 74.6303 208.384 75.8236 214.571 77.6276Z" fill="#455A64"/>
<path d="M242.398 93.6867C245.26 96.8164 247.362 100.564 248.541 104.639L185.673 110.36L242.398 93.6867Z" fill="#455A64"/>
<path d="M248.549 104.647C249.589 108.412 249.589 112.388 248.549 116.152L185.673 110.36L248.549 104.647Z" fill="#455A64"/>
<path d="M248.549 116.152C247.373 120.225 245.271 123.97 242.407 127.095L185.673 110.422L248.549 116.152Z" fill="#455A64"/>
<path d="M242.407 127.095C239.026 130.808 235.067 133.95 230.683 136.397L185.656 110.36L242.407 127.095Z" fill="#455A64"/>
<path d="M185.664 110.404L214.58 143.163C208.388 144.95 202.037 146.126 195.616 146.673L185.656 110.378L185.664 110.404Z" fill="#455A64"/>
<path d="M185.656 110.413L195.616 146.708C188.987 147.314 182.316 147.314 175.687 146.708L185.656 110.413Z" fill="#455A64"/>
<path d="M185.638 110.404L175.669 146.699C169.248 146.152 162.897 144.976 156.705 143.189L185.638 110.404Z" fill="#455A64"/>
<path d="M185.638 110.404L156.679 143.163C151.064 141.547 145.66 139.276 140.576 136.397L185.638 110.404Z" fill="#455A64"/>
<path d="M185.629 110.36L128.896 127.034C126.028 123.911 123.925 120.165 122.753 116.091L185.629 110.36Z" fill="#455A64"/>
<path d="M185.629 110.36L122.762 116.152C121.713 112.389 121.713 108.411 122.762 104.647L185.629 110.36Z" fill="#455A64"/>
<path d="M185.629 110.36L122.762 104.612C123.943 100.539 126.044 96.7918 128.905 93.6604L185.629 110.36Z" fill="#455A64"/>
<path d="M140.62 84.4023L185.629 110.36L128.905 93.6868C132.285 89.9819 136.241 86.8468 140.62 84.4023Z" fill="#455A64"/>
<path d="M230.683 84.4023L185.664 110.36L214.571 77.61C220.191 79.2287 225.6 81.5087 230.683 84.4023Z" fill="#455A64"/>
<path d="M230.683 84.4023C235.063 86.8444 239.02 89.9798 242.398 93.6868L185.673 110.36L230.683 84.4023Z" fill="#455A64"/>
<path d="M185.638 110.36L140.602 136.362C136.219 133.912 132.26 130.771 128.878 127.06L185.612 110.386L185.638 110.36Z" fill="#455A64"/>
<path d="M156.74 77.6275L185.638 110.36L140.62 84.3671C145.707 81.4903 151.119 79.2279 156.74 77.6275Z" fill="#455A64"/>
<path d="M185.664 110.404L230.683 136.397C225.599 139.276 220.194 141.547 214.58 143.163L185.664 110.404Z" fill="#455A64"/>
<path d="M147.14 73.7488L182.9 94.3888L181.145 65.2102C167.991 65.7719 156.819 68.58 147.14 73.7488Z" fill="#90CAF9"/>
<path opacity="0.2" d="M147.14 73.7488L182.9 94.3888L181.145 65.2102C167.991 65.7719 156.819 68.58 147.14 73.7488Z" fill="white"/>
<path d="M182.9 94.3888V105.656L147.14 85.0078V73.7488L182.9 94.3888Z" fill="#90CAF9"/>
<path opacity="0.1" d="M182.9 94.3888V105.656L147.14 85.0078V73.7488L182.9 94.3888Z" fill="black"/>
<path d="M229.261 76.6447L188.218 95.161V106.42L229.261 87.9036V76.6447Z" fill="#90CAF9"/>
<path opacity="0.3" d="M229.261 76.6447L188.218 95.161V106.42L229.261 87.9036V76.6447Z" fill="black"/>
<path d="M229.261 76.6447C218.213 69.1241 203.479 65.1576 186.402 65.105L187.499 83.3492L188.218 95.161L229.261 76.6447Z" fill="#90CAF9"/>
<path opacity="0.1" d="M229.261 76.6447C218.213 69.1241 203.479 65.1576 186.402 65.105L187.499 83.3492L188.218 95.161L229.261 76.6447Z" fill="black"/>
<path d="M186.393 65.105V76.3639L188.218 106.42V95.161L186.393 65.105Z" fill="#263238"/>
<path d="M196.564 116.845L217.546 137.029C218.722 136.581 219.81 136.151 221.056 135.555C235.509 129.043 243.065 119.285 243.056 109.439V98.2938C241.468 94.0552 237.098 94.064 232.526 90.3344L189.675 109.641L189.245 109.834L196.564 116.845Z" fill="#90CAF9"/>
<path opacity="0.6" d="M196.564 116.845L217.546 137.029C218.722 136.581 219.81 136.151 221.056 135.555C235.509 129.043 243.065 119.285 243.056 109.439V98.2938C241.468 94.0552 237.098 94.064 232.526 90.3344L189.675 109.641L189.245 109.834L196.564 116.845Z" fill="white"/>
<path d="M196.564 105.586L217.546 125.77C218.722 125.322 219.81 124.892 221.056 124.287C245.25 113.361 250.094 93.3532 232.543 79.0404L189.692 98.3465L189.262 98.5396L196.564 105.586Z" fill="#90CAF9"/>
<path opacity="0.8" d="M196.564 105.586L217.546 125.77C218.722 125.322 219.81 124.892 221.056 124.287C245.25 113.361 250.094 93.3532 232.543 79.0404L189.692 98.3465L189.262 98.5396L196.564 105.586Z" fill="white"/>
<path d="M217.511 137.011V125.744L189.219 98.5659V109.825L217.511 137.011Z" fill="#90CAF9"/>
<path opacity="0.6" d="M217.511 137.011V125.744L189.219 98.5659V109.825L217.511 137.011Z" fill="white"/>
<path d="M143.419 87.1577C137.39 90.9575 130.695 93.3532 128.255 97.9691V109.237C128.255 115.108 130.984 121.057 136.644 126.498C144.542 134.072 157.048 139.425 171.904 141.557C185.654 143.587 199.681 142.565 212.991 138.565V127.306L194.519 120.812L183.672 110.36L143.419 87.1577Z" fill="#90CAF9"/>
<path opacity="0.6" d="M143.419 87.1577C137.39 90.9575 130.695 93.3532 128.255 97.9691V109.237C128.255 115.108 130.984 121.057 136.644 126.498C144.542 134.072 157.048 139.425 171.904 141.557C185.654 143.587 199.681 142.565 212.991 138.565V127.306L194.519 120.812L183.672 110.36L143.419 87.1577Z" fill="black"/>
<path d="M143.419 75.8988C126.096 86.798 123.306 102.418 136.645 115.231C144.542 122.813 157.048 128.157 171.904 130.298C185.654 132.323 199.68 131.302 212.991 127.306L194.519 109.553L183.672 99.1363L143.419 75.8988Z" fill="#90CAF9"/>
<path opacity="0.3" d="M143.419 75.8988C126.096 86.798 123.306 102.418 136.645 115.231C144.542 122.813 157.048 128.157 171.904 130.298C185.654 132.323 199.68 131.302 212.991 127.306L194.519 109.553L183.672 99.1363L143.419 75.8988Z" fill="black"/>
<path d="M344.422 198.685C343.246 194.613 341.143 190.868 338.279 187.742C334.901 184.03 330.945 180.889 326.564 178.44C321.478 175.559 316.07 173.288 310.452 171.674C304.263 169.888 297.915 168.713 291.497 168.164C284.868 167.559 278.197 167.559 271.568 168.164C265.153 168.713 258.807 169.889 252.622 171.674C247.004 173.288 241.596 175.559 236.51 178.44C232.125 180.888 228.166 184.029 224.786 187.742C221.924 190.869 219.822 194.614 218.643 198.685C217.594 202.452 217.594 206.433 218.643 210.199C219.813 214.272 221.916 218.015 224.786 221.133C228.167 224.847 232.126 227.991 236.51 230.444C241.593 233.321 246.998 235.589 252.613 237.201C258.805 238.983 265.156 240.159 271.577 240.711C278.206 241.308 284.876 241.308 291.506 240.711C297.926 240.159 304.277 238.984 310.47 237.201C316.087 235.593 321.493 233.322 326.573 230.435C330.96 227.988 334.923 224.847 338.305 221.133C341.169 218.011 343.271 214.269 344.448 210.199C345.484 206.43 345.475 202.45 344.422 198.685Z" fill="#37474F"/>
<path d="M217.844 198.677H345.203V205.171L217.844 204.811V198.677Z" fill="#37474F"/>
<path d="M271.559 162.381L281.519 198.677L252.613 165.927C258.797 164.129 265.143 162.942 271.559 162.381Z" fill="#455A64"/>
<path d="M291.488 162.381L281.537 198.677L271.576 162.381C278.2 161.777 284.865 161.777 291.488 162.381Z" fill="#455A64"/>
<path d="M310.443 165.927L281.537 198.677L291.488 162.381C297.907 162.941 304.256 164.128 310.443 165.927Z" fill="#455A64"/>
<path d="M338.27 181.995C341.134 185.123 343.237 188.871 344.413 192.946L281.545 198.694L338.27 181.995Z" fill="#455A64"/>
<path d="M344.422 192.946C345.466 196.71 345.466 200.687 344.422 204.451L281.554 198.694L344.422 192.946Z" fill="#455A64"/>
<path d="M344.422 204.451C343.243 208.523 341.141 212.267 338.279 215.394L281.545 198.721L344.422 204.451Z" fill="#455A64"/>
<path d="M338.288 215.394C334.9 219.103 330.939 222.244 326.555 224.696L281.528 198.694L338.288 215.394Z" fill="#455A64"/>
<path d="M281.537 198.703L310.452 231.462C304.259 233.245 297.908 234.42 291.488 234.972L281.528 198.677L281.537 198.703Z" fill="#455A64"/>
<path d="M281.528 198.712L291.488 234.972C284.859 235.573 278.188 235.573 271.559 234.972L281.528 198.712Z" fill="#455A64"/>
<path d="M281.519 198.703L271.559 234.972C265.139 234.42 258.788 233.244 252.595 231.462L281.519 198.703Z" fill="#455A64"/>
<path d="M281.519 198.703L252.56 231.462C246.947 229.843 241.542 227.572 236.457 224.696L281.519 198.703Z" fill="#455A64"/>
<path d="M281.502 198.694L224.768 215.368C221.9 212.246 219.797 208.499 218.625 204.425L281.502 198.694Z" fill="#455A64"/>
<path d="M281.502 198.694L218.634 204.451C217.585 200.688 217.585 196.709 218.634 192.946L281.502 198.694Z" fill="#455A64"/>
<path d="M281.502 198.685L218.634 192.938C219.813 188.863 221.915 185.116 224.777 181.986L281.502 198.685Z" fill="#455A64"/>
<path d="M236.501 172.666L281.502 198.65L224.777 181.977C228.156 178.261 232.116 175.116 236.501 172.666Z" fill="#455A64"/>
<path d="M326.555 172.666L281.537 198.65L310.443 165.9C316.062 167.511 321.471 169.782 326.555 172.666Z" fill="#455A64"/>
<path d="M326.555 172.666C330.936 175.111 334.893 178.249 338.27 181.959L281.554 198.633L326.555 172.666Z" fill="#455A64"/>
<path d="M281.519 198.685L236.492 224.696C232.111 222.244 228.152 219.103 224.768 215.394L281.502 198.721L281.519 198.685Z" fill="#455A64"/>
<path d="M252.613 165.927L281.519 198.677L236.501 172.666C241.586 169.791 246.995 167.529 252.613 165.927Z" fill="#455A64"/>
<path d="M281.537 198.703L326.555 224.696C321.471 227.575 316.066 229.846 310.452 231.462L281.537 198.703Z" fill="#455A64"/>
<path d="M225.426 184.434V202.669C224.964 201.003 224.728 199.282 224.724 197.553V184.434H225.426Z" fill="#90CAF9"/>
<path opacity="0.3" d="M225.426 184.434V202.669C224.964 201.003 224.728 199.282 224.724 197.553V184.434H225.426Z" fill="black"/>
<path d="M281.502 184.452L225.426 189.577C224.496 186.22 224.496 182.674 225.426 179.318L281.502 184.452Z" fill="#90CAF9"/>
<path d="M281.502 184.434L225.426 179.3C226.48 175.667 228.357 172.325 230.911 169.533L281.502 184.434Z" fill="#90CAF9"/>
<path d="M241.362 161.258L281.502 184.434L230.911 169.516C233.929 166.22 237.458 163.431 241.362 161.258Z" fill="#90CAF9"/>
<path d="M255.737 155.22L281.519 184.425L241.363 161.258C245.899 158.685 250.724 156.658 255.737 155.22Z" fill="#90CAF9"/>
<path d="M272.638 152.061L281.519 184.425L255.737 155.22C261.253 153.616 266.914 152.557 272.638 152.061Z" fill="#90CAF9"/>
<path d="M290.461 152.061L281.537 184.425L272.656 152.061C278.578 151.516 284.539 151.516 290.461 152.061Z" fill="#90CAF9"/>
<path d="M307.319 155.22L281.537 184.425L290.461 152.061C296.17 152.56 301.817 153.618 307.319 155.22Z" fill="#90CAF9"/>
<g opacity="0.2">
<path d="M281.502 184.452L225.426 189.577C224.496 186.22 224.496 182.674 225.426 179.318L281.502 184.452Z" fill="white"/>
<path d="M281.502 184.434L225.426 179.301C226.48 175.667 228.357 172.325 230.911 169.533L281.502 184.434Z" fill="white"/>
<path d="M241.362 161.258L281.502 184.434L230.911 169.516C233.929 166.22 237.458 163.432 241.362 161.258Z" fill="white"/>
<path d="M255.737 155.221L281.519 184.425L241.362 161.258C245.899 158.685 250.724 156.658 255.737 155.221Z" fill="white"/>
<path d="M272.638 152.061L281.519 184.425L255.737 155.221C261.253 153.616 266.914 152.558 272.638 152.061Z" fill="white"/>
<path d="M290.461 152.061L281.537 184.425L272.656 152.061C278.578 151.516 284.539 151.516 290.461 152.061Z" fill="white"/>
<path d="M307.319 155.221L281.537 184.425L290.461 152.061C296.17 152.56 301.817 153.619 307.319 155.221Z" fill="white"/>
</g>
<path d="M329.074 193.192L320.658 201.09L314.261 207.136L308.162 212.875L307.345 213.639V226.741C312.358 225.304 317.182 223.281 321.72 220.712C325.629 218.52 329.161 215.714 332.18 212.402C334.733 209.619 336.605 206.282 337.647 202.652C338.112 200.986 338.351 199.265 338.358 197.536V184.443L329.074 193.192Z" fill="#90CAF9"/>
<path opacity="0.3" d="M329.074 193.192L320.658 201.09L314.261 207.136L308.162 212.875L307.345 213.639V226.741C312.358 225.304 317.182 223.281 321.72 220.712C325.629 218.52 329.161 215.714 332.18 212.402C334.733 209.619 336.605 206.282 337.647 202.652C338.112 200.986 338.351 199.265 338.358 197.536V184.443L329.074 193.192Z" fill="black"/>
<path d="M332.145 169.551C334.696 172.345 336.572 175.686 337.63 179.318L281.545 184.452L332.145 169.551Z" fill="#90CAF9"/>
<path d="M338.332 184.46C338.325 186.193 338.085 187.916 337.621 189.585L320.631 188.023L281.545 184.443L329.047 180.055L337.621 179.274C338.09 180.963 338.33 182.708 338.332 184.46Z" fill="#90CAF9"/>
<path d="M337.621 189.585C336.576 193.214 334.705 196.551 332.154 199.335L314.234 194.07L281.545 184.417L320.631 187.997L337.621 189.585Z" fill="#90CAF9"/>
<path d="M332.154 199.335C329.134 202.647 325.603 205.453 321.693 207.645L308.135 199.8L281.554 184.46L314.243 194.113L332.154 199.335Z" fill="#90CAF9"/>
<path d="M321.693 161.258L281.537 184.443L307.319 155.238C312.33 156.673 317.155 158.694 321.693 161.258Z" fill="#90CAF9"/>
<path d="M321.693 161.258C325.599 163.444 329.128 166.244 332.145 169.551L281.545 184.469L321.693 161.258Z" fill="#90CAF9"/>
<path d="M321.693 207.645C317.156 210.211 312.331 212.232 307.319 213.665L281.554 184.46L308.135 199.8L321.693 207.645Z" fill="#90CAF9"/>
<g opacity="0.2">
<path d="M332.145 169.551C334.696 172.345 336.572 175.686 337.629 179.318L281.545 184.452L332.145 169.551Z" fill="white"/>
<path d="M338.331 184.46C338.324 186.193 338.085 187.916 337.621 189.585L320.631 188.023L281.545 184.443L329.047 180.055L337.621 179.274C338.09 180.963 338.329 182.708 338.331 184.46Z" fill="white"/>
<path d="M337.621 189.585C336.576 193.214 334.705 196.551 332.154 199.335L314.234 194.07L281.545 184.417L320.631 187.997L337.621 189.585Z" fill="white"/>
<path d="M332.154 199.335C329.134 202.647 325.602 205.453 321.693 207.645L308.135 199.8L281.554 184.46L314.243 194.114L332.154 199.335Z" fill="#0060AF"/>
<path d="M321.693 161.258L281.537 184.443L307.319 155.238C312.33 156.673 317.155 158.694 321.693 161.258Z" fill="white"/>
<path d="M321.693 161.258C325.599 163.444 329.128 166.244 332.145 169.551L281.545 184.469L321.693 161.258Z" fill="#00203A"/>
<path d="M321.693 207.645C317.156 210.211 312.331 212.232 307.319 213.665L281.554 184.46L308.135 199.8L321.693 207.645Z" fill="white"/>
</g>
<path d="M307.328 213.674V226.776L281.519 197.536V184.425L307.328 213.674Z" fill="#263238"/>
<path d="M281.519 197.536L225.426 202.687V189.577L281.519 184.425V197.536Z" fill="#90CAF9"/>
<path opacity="0.1" d="M281.519 197.536L225.426 202.687V189.577L281.519 184.425V197.536Z" fill="black"/>
<path d="M152.686 198.685C151.51 194.613 149.407 190.868 146.543 187.742C143.164 184.031 139.208 180.89 134.828 178.44C129.74 175.558 124.329 173.287 118.707 171.674C112.522 169.888 106.176 168.712 99.7611 168.164C93.1319 167.559 86.4612 167.559 79.832 168.164C73.4143 168.713 67.0657 169.889 60.8769 171.674C55.2529 173.287 49.839 175.558 44.7476 178.44C40.3662 180.889 36.4099 184.03 33.0323 187.742C30.1682 190.868 28.0658 194.613 26.8894 198.685C25.8494 202.453 25.8494 206.431 26.8894 210.199C28.0638 214.27 30.1665 218.013 33.0323 221.133C36.4092 224.849 40.3655 227.993 44.7476 230.444C49.8297 233.324 55.235 235.592 60.8506 237.201C67.043 238.984 73.3942 240.159 79.8144 240.711C86.4441 241.308 93.1139 241.308 99.7436 240.711C106.164 240.159 112.515 238.984 118.707 237.201C124.325 235.593 129.73 233.322 134.81 230.435C139.199 227.989 143.161 224.848 146.543 221.133C149.409 218.013 151.512 214.27 152.686 210.199C153.726 206.431 153.726 202.453 152.686 198.685Z" fill="#37474F"/>
<path d="M26.0996 198.677H153.458V205.171L26.0996 204.811V198.677Z" fill="#37474F"/>
<path d="M79.8496 162.381L89.801 198.677L60.8945 165.927C67.0821 164.129 73.4307 162.942 79.8496 162.381Z" fill="#455A64"/>
<path d="M99.7436 162.381L89.7922 198.677L79.8496 162.381C86.4672 161.778 93.126 161.778 99.7436 162.381Z" fill="#455A64"/>
<path d="M118.69 165.927L89.7922 198.677L99.7436 162.381C106.16 162.941 112.506 164.128 118.69 165.927Z" fill="#455A64"/>
<path d="M146.543 181.995C149.407 185.123 151.51 188.871 152.686 192.946L89.8097 198.694L146.543 181.995Z" fill="#455A64"/>
<path d="M152.686 192.946C153.726 196.711 153.726 200.687 152.686 204.451L89.8097 198.694L152.686 192.946Z" fill="#455A64"/>
<path d="M152.686 204.451C151.51 208.524 149.408 212.269 146.543 215.394L89.8097 198.721L152.686 204.451Z" fill="#455A64"/>
<path d="M146.543 215.394C143.159 219.103 139.201 222.244 134.819 224.696L89.7834 198.694L146.543 215.394Z" fill="#455A64"/>
<path d="M89.7921 198.703L118.707 231.462C112.515 233.245 106.164 234.42 99.7435 234.972L89.7745 198.677L89.7921 198.703Z" fill="#455A64"/>
<path d="M89.7747 198.712L99.7436 234.972C93.1258 235.571 86.4674 235.571 79.8496 234.972L89.7747 198.712Z" fill="#455A64"/>
<path d="M89.7659 198.703L79.8496 234.972C73.4293 234.42 67.0781 233.245 60.8857 231.462L89.7659 198.703Z" fill="#455A64"/>
<path d="M89.7658 198.703L60.8067 231.462C55.2072 229.843 49.8173 227.572 44.7476 224.696L89.7658 198.703Z" fill="#455A64"/>
<path d="M89.7571 198.694L33.0236 215.368C30.1592 212.243 28.0568 208.497 26.8807 204.425L89.7571 198.694Z" fill="#455A64"/>
<path d="M89.7571 198.694L26.8807 204.451C25.8409 200.687 25.8409 196.711 26.8807 192.946L89.7571 198.694Z" fill="#455A64"/>
<path d="M89.7571 198.685L26.8807 192.938C28.057 188.862 30.1593 185.114 33.0236 181.986L89.7571 198.685Z" fill="#455A64"/>
<path d="M44.7476 172.666L89.7571 198.65L33.0323 181.977C36.4086 178.261 40.3651 175.116 44.7476 172.666Z" fill="#455A64"/>
<path d="M134.811 172.666L89.7922 198.65L118.69 165.9C124.313 167.509 129.724 169.78 134.811 172.666Z" fill="#455A64"/>
<path d="M134.81 172.666C139.199 175.122 143.161 178.273 146.543 181.995L89.8185 198.668L134.81 172.666Z" fill="#455A64"/>
<path d="M89.7658 198.685L44.7475 224.696C40.3647 222.246 36.4058 219.105 33.0234 215.394L89.757 198.721L89.7658 198.685Z" fill="#455A64"/>
<path d="M60.8594 165.927L89.7658 198.677L44.7476 172.666C49.833 169.791 55.2413 167.529 60.8594 165.927Z" fill="#455A64"/>
<path d="M89.7922 198.703L134.811 224.696C129.727 227.575 124.322 229.846 118.707 231.462L89.7922 198.703Z" fill="#455A64"/>
<path d="M106.711 176.176L113.969 167.945C113.969 158.292 102.174 158.055 96.9618 157.59C91.7491 157.125 82.8069 154.132 82.8069 165.119L85.2991 174.211C92.4953 173.748 99.7196 174.411 106.711 176.176Z" fill="#90CAF9"/>
<path opacity="0.6" d="M106.711 176.176L113.969 167.945C113.969 158.292 102.174 158.055 96.9618 157.59C91.7491 157.125 82.8069 154.132 82.8069 165.119L85.2991 174.211C92.4953 173.748 99.7196 174.411 106.711 176.176Z" fill="white"/>
<path d="M106.711 163.25L113.969 155.027C103.807 152.383 93.2788 151.428 82.8069 152.202L85.2991 161.258C92.4967 160.804 99.721 161.476 106.711 163.25Z" fill="#90CAF9"/>
<path opacity="0.8" d="M106.711 163.25L113.969 155.027C103.807 152.383 93.2788 151.428 82.8069 152.202L85.2991 161.258C92.4967 160.804 99.721 161.476 106.711 163.25Z" fill="white"/>
<path d="M85.2991 161.293V174.228L82.8069 165.137V152.202L85.2991 161.293Z" fill="#90CAF9"/>
<path d="M113.969 155.027L106.711 163.25V176.194L113.969 167.962V155.027Z" fill="#90CAF9"/>
<g opacity="0.6">
<path d="M85.2991 161.293V174.228L82.8069 165.137V152.202L85.2991 161.293Z" fill="white"/>
<path d="M113.969 155.027L106.711 163.25V176.194L113.969 167.963V155.027Z" fill="white"/>
</g>
<path d="M110.257 164.294V177.229C113.285 178.207 116.207 179.486 118.979 181.047C121.399 182.421 123.622 184.115 125.587 186.084L139.821 181.898C136.991 179.009 133.768 176.534 130.247 174.544C126.36 172.315 122.2 163.276 110.257 164.294Z" fill="#90CAF9"/>
<path opacity="0.6" d="M110.257 164.294V177.229C113.285 178.207 116.207 179.486 118.979 181.047C121.399 182.421 123.622 184.115 125.587 186.084L139.821 181.898C136.991 179.009 133.768 176.534 130.247 174.544C126.36 172.315 122.2 163.276 110.257 164.294Z" fill="black"/>
<path d="M117.514 156.08L110.257 164.294C113.287 165.264 116.21 166.543 118.979 168.112C121.399 169.485 123.622 171.18 125.587 173.149L139.821 168.963C136.996 166.069 133.772 163.593 130.247 161.609C126.213 159.316 121.944 157.463 117.514 156.08Z" fill="#90CAF9"/>
<path opacity="0.3" d="M117.514 156.08L110.257 164.294C113.287 165.264 116.21 166.543 118.979 168.112C121.399 169.485 123.622 171.18 125.587 173.149L139.821 168.963C136.996 166.069 133.772 163.593 130.247 161.609C126.213 159.316 121.944 157.463 117.514 156.08Z" fill="black"/>
<path d="M125.588 173.149L139.821 168.954V181.898L125.588 186.084V173.149Z" fill="#90CAF9"/>
<path opacity="0.6" d="M125.588 173.149L139.821 168.954V181.898L125.588 186.084V173.149Z" fill="black"/>
<path d="M146.964 184.627H142.156C141.98 184.399 141.831 184.171 141.655 183.943L127.404 175.167V188.111C130.44 192.016 131.59 196.281 130.8 200.467L146.543 201.932C146.81 200.627 146.942 199.298 146.938 197.966L146.964 184.627Z" fill="#90CAF9"/>
<path opacity="0.6" d="M146.964 184.627H142.156C141.98 184.399 141.831 184.171 141.655 183.943L127.404 175.167V188.111C130.44 192.016 131.59 196.281 130.8 200.467L146.543 201.932C146.81 200.627 146.942 199.298 146.938 197.966L146.964 184.627Z" fill="black"/>
<path d="M130.791 187.584L146.543 188.997C147.825 182.916 146.201 176.659 141.647 171.008L127.395 175.193C130.432 179.099 131.625 183.372 130.791 187.584Z" fill="#90CAF9"/>
<path opacity="0.3" d="M130.791 187.584L146.543 188.997C147.825 182.916 146.201 176.659 141.647 171.008L127.395 175.193C130.432 179.099 131.625 183.372 130.791 187.584Z" fill="black"/>
<path d="M146.543 188.997V201.941L130.791 200.493V187.558L146.543 188.997Z" fill="#90CAF9"/>
<path opacity="0.6" d="M146.543 188.997V201.941L130.791 200.493V187.558L146.543 188.997Z" fill="black"/>
<path d="M81.3677 174.597V161.653C72.5922 157.607 56.2523 161.714 50.7764 173.763L62.0441 180.275C68.0963 177.248 74.6401 175.325 81.3677 174.597Z" fill="#90CAF9"/>
<path opacity="0.3" d="M81.3677 174.597V161.653C72.5922 157.607 56.2523 161.714 50.7764 173.763L62.0441 180.275C68.0963 177.248 74.6401 175.325 81.3677 174.597Z" fill="black"/>
<path d="M81.3676 161.653L78.8666 152.535C68.257 153.729 58.5426 156.651 50.785 160.828L62.0528 167.331C68.1023 164.305 74.643 162.382 81.3676 161.653Z" fill="#90CAF9"/>
<path opacity="0.1" d="M81.3676 161.653L78.8666 152.535C68.257 153.729 58.5426 156.651 50.785 160.828L62.0528 167.331C68.1023 164.305 74.643 162.382 81.3676 161.653Z" fill="black"/>
<path d="M62.0441 167.331V180.274L50.7764 173.763V160.828L62.0441 167.331Z" fill="#263238"/>
<path d="M50.2586 168.963L47.9418 175.378C40.3686 180.064 35.5859 185.707 33.6202 191.612L49.4161 193.052C50.8641 189.006 54.1637 185.154 59.271 181.907V168.963H50.2586Z" fill="#90CAF9"/>
<path opacity="0.3" d="M50.2586 168.963L47.9418 175.378C40.3686 180.064 35.5859 185.707 33.6202 191.612L49.4161 193.052C50.8641 189.006 54.1637 185.154 59.271 181.907V168.963H50.2586Z" fill="black"/>
<path d="M59.2359 168.963L47.9418 162.443C40.3686 167.12 35.5859 172.771 33.6202 178.669L49.4161 180.117C50.829 176.071 54.1286 172.21 59.2359 168.963Z" fill="#90CAF9"/>
<path opacity="0.1" d="M59.2359 168.963L47.9418 162.443C40.3686 167.12 35.5859 172.771 33.6202 178.669L49.4161 180.117C50.829 176.071 54.1286 172.21 59.2359 168.963Z" fill="black"/>
<path d="M33.6202 178.669V191.612L49.381 193.052V180.117L33.6202 178.669Z" fill="#263238"/>
<path d="M48.7581 195.324V182.381L44.072 181.959L32.5936 184.952V197.878C32.6671 203.014 34.5291 207.964 37.8589 211.875L52.1103 207.689C49.1354 203.784 47.9771 199.51 48.7581 195.324Z" fill="#90CAF9"/>
<path opacity="0.3" d="M48.7581 195.324V182.381L44.072 181.959L32.5936 184.952V197.878C32.6671 203.014 34.5291 207.964 37.8589 211.875L52.1103 207.689C49.1354 203.784 47.9771 199.51 48.7581 195.324Z" fill="black"/>
<path d="M37.9115 198.94L52.1629 194.745V207.689L37.9115 211.875V198.94Z" fill="#263238"/>
<path d="M48.7668 182.381L32.9709 180.941C31.6897 187.032 33.3132 193.28 37.8677 198.94L52.1191 194.745C49.1354 190.84 47.977 186.567 48.7668 182.381Z" fill="#90CAF9"/>
<path opacity="0.1" d="M48.7668 182.381L32.9709 180.941C31.6897 187.032 33.3132 193.28 37.8677 198.94L52.1191 194.745C49.1354 190.84 47.977 186.567 48.7668 182.381Z" fill="black"/>
<path d="M65.6245 211.857C58.9464 208.005 55.6117 202.959 55.6117 197.913V184.952H123.946V197.887C123.946 202.942 120.612 207.987 113.934 211.84C100.595 219.562 78.9721 219.562 65.6245 211.857Z" fill="#37474F"/>
<path d="M89.7835 204.697C108.651 204.697 123.946 195.864 123.946 184.969C123.946 174.074 108.651 165.242 89.7835 165.242C70.9158 165.242 55.6205 174.074 55.6205 184.969C55.6205 195.864 70.9158 204.697 89.7835 204.697Z" fill="#455A64"/>
<path d="M62.0441 215.561V213.911L39.728 200.985V213.911C42.5591 216.802 45.7854 219.278 49.3109 221.265C53.3454 223.558 57.6142 225.411 62.0441 226.793L69.2927 218.58C66.7998 217.768 64.3759 216.759 62.0441 215.561Z" fill="#90CAF9"/>
<path opacity="0.3" d="M62.0441 215.561V213.911L39.728 200.985V213.911C42.5591 216.802 45.7854 219.278 49.3109 221.265C53.3454 223.558 57.6142 225.411 62.0441 226.793L69.2927 218.58C66.7998 217.768 64.3759 216.759 62.0441 215.561Z" fill="black"/>
<path d="M60.5434 201.827C58.1213 200.457 55.8955 198.766 53.9267 196.799L39.6929 200.985C42.5262 203.873 45.7522 206.349 49.2757 208.339C53.312 210.628 57.5805 212.481 62.0089 213.867L69.2575 205.644C66.2295 204.674 63.3094 203.395 60.5434 201.827Z" fill="#90CAF9"/>
<path opacity="0.1" d="M60.5434 201.827C58.1213 200.457 55.8955 198.766 53.9267 196.799L39.6929 200.985C42.5262 203.873 45.7522 206.349 49.2757 208.339C53.312 210.628 57.5805 212.481 62.0089 213.867L69.2575 205.644C66.2295 204.674 63.3094 203.395 60.5434 201.827Z" fill="black"/>
<path d="M62.0441 226.802V213.867L69.2926 205.644V218.588L62.0441 226.802Z" fill="#263238"/>
<path d="M65.5894 214.911V227.855C75.7513 230.5 86.2792 231.455 96.7511 230.681V217.746L65.5894 214.911Z" fill="#90CAF9"/>
<path opacity="0.1" d="M65.5894 214.911V227.855C75.7513 230.5 86.2792 231.455 96.7511 230.681V217.746L65.5894 214.911Z" fill="black"/>
<path d="M72.8292 206.689L65.5719 214.911C75.7341 217.555 86.2613 218.512 96.7337 217.746L94.259 208.646C87.0574 209.113 79.8271 208.452 72.8292 206.689Z" fill="#90CAF9"/>
<path opacity="0.2" d="M72.8292 206.689L65.5719 214.911C75.7341 217.555 86.2613 218.512 96.7337 217.746L94.259 208.646C87.0574 209.113 79.8271 208.452 72.8292 206.689Z" fill="white"/>
<path d="M120.322 213.911L131.625 220.44C139.198 215.763 143.981 210.111 145.947 204.205V191.27L130.151 202.766C128.729 206.812 125.429 210.673 120.322 213.911Z" fill="#90CAF9"/>
<path opacity="0.1" d="M120.322 213.911L131.625 220.44C139.198 215.763 143.981 210.111 145.947 204.205V191.27L130.151 202.766C128.729 206.812 125.429 210.673 120.322 213.911Z" fill="black"/>
<path d="M120.322 200.976L131.625 207.505C139.198 202.819 143.981 197.176 145.947 191.27L130.151 189.831C128.729 193.876 125.429 197.729 120.322 200.976Z" fill="#90CAF9"/>
<path opacity="0.2" d="M120.322 200.976L131.625 207.505C139.198 202.819 143.981 197.176 145.947 191.27L130.151 189.831C128.729 193.876 125.429 197.729 120.322 200.976Z" fill="white"/>
<path d="M131.616 207.505V220.44L120.322 213.92V200.976L131.616 207.505Z" fill="#90CAF9"/>
<path opacity="0.3" d="M131.616 207.505V220.44L120.322 213.92V200.976L131.616 207.505Z" fill="black"/>
<path d="M100.691 217.421V220.931C99.8577 221.063 99.0328 221.177 98.1903 221.274L100.691 230.383C110.915 229.242 120.691 226.477 128.773 222.107V209.128L100.691 217.421Z" fill="#90CAF9"/>
<path opacity="0.1" d="M100.691 217.421V220.931C99.8577 221.063 99.0328 221.177 98.1903 221.274L100.691 230.383C110.915 229.242 120.691 226.477 128.773 222.107V209.128L100.691 217.421Z" fill="black"/>
<path d="M98.1903 208.295L100.691 217.421C110.915 216.28 120.691 213.525 128.773 209.155L117.479 202.626C111.442 205.658 104.908 207.579 98.1903 208.295Z" fill="#90CAF9"/>
<path opacity="0.2" d="M98.1903 208.295L100.691 217.421C110.915 216.28 120.691 213.525 128.773 209.155L117.479 202.626C111.442 205.658 104.908 207.579 98.1903 208.295Z" fill="white"/>
<path d="M100.691 217.395V230.33L98.1903 221.239V208.295L100.691 217.395Z" fill="#90CAF9"/>
<path opacity="0.3" d="M100.691 217.395V230.33L98.1903 221.239V208.295L100.691 217.395Z" fill="black"/>
<path d="M319.693 130.842C319.661 130.271 319.497 129.716 319.212 129.221C318.927 128.725 318.529 128.304 318.052 127.99L294.288 114.274C293.41 113.747 292.647 114.177 292.647 115.23V138.196C292.676 138.767 292.841 139.323 293.126 139.818C293.411 140.314 293.809 140.735 294.288 141.048L304.239 146.787L307.381 159.503C307.37 159.736 307.453 159.963 307.61 160.135C307.767 160.307 307.986 160.409 308.219 160.42C308.451 160.43 308.679 160.348 308.851 160.191C309.023 160.034 309.125 159.815 309.136 159.582L312.014 151.271L318.096 154.782C318.973 155.308 319.737 154.878 319.737 153.834L319.693 130.842Z" fill="#90CAF9"/>
<path opacity="0.5" d="M319.693 130.842C319.661 130.271 319.497 129.716 319.212 129.221C318.927 128.725 318.529 128.304 318.052 127.99L294.288 114.274C293.41 113.747 292.647 114.177 292.647 115.23V138.196C292.676 138.767 292.841 139.323 293.126 139.818C293.411 140.314 293.809 140.735 294.288 141.048L304.239 146.787L307.381 159.503C307.37 159.736 307.453 159.963 307.61 160.135C307.767 160.307 307.986 160.409 308.219 160.42C308.451 160.43 308.679 160.348 308.851 160.191C309.023 160.034 309.125 159.815 309.136 159.582L312.014 151.271L318.096 154.782C318.973 155.308 319.737 154.878 319.737 153.834L319.693 130.842Z" fill="#3D9A5C"/>
<path d="M301.65 124.734C302.135 125.01 302.583 125.346 302.984 125.735C303.342 126.083 303.663 126.469 303.941 126.884C304.182 127.252 304.379 127.647 304.529 128.06C304.652 128.412 304.732 128.777 304.765 129.148C304.765 129.526 304.809 129.921 304.809 130.333C304.809 130.746 304.809 131.123 304.765 131.474C304.744 131.757 304.663 132.032 304.529 132.281C304.397 132.512 304.189 132.689 303.941 132.782C303.628 132.867 303.297 132.867 302.984 132.782C302.512 132.672 302.061 132.485 301.65 132.229C301.163 131.956 300.712 131.623 300.308 131.237C299.948 130.899 299.63 130.519 299.36 130.105C298.901 129.427 298.615 128.646 298.526 127.832C298.526 127.455 298.526 127.06 298.526 126.647C298.526 126.235 298.526 125.858 298.526 125.515C298.553 125.23 298.637 124.952 298.772 124.699C298.899 124.465 299.108 124.287 299.36 124.199C299.667 124.102 299.993 124.087 300.308 124.155C300.786 124.268 301.24 124.464 301.65 124.734ZM310.04 130.079C310.129 130.013 310.236 129.973 310.347 129.965C310.506 129.975 310.66 130.026 310.794 130.114L312.049 130.842C312.193 130.924 312.319 131.034 312.418 131.167C312.5 131.279 312.546 131.414 312.549 131.553C312.553 131.582 312.553 131.612 312.549 131.641C312.534 131.673 312.513 131.703 312.488 131.728L302.15 139.363C302.06 139.43 301.955 139.472 301.843 139.486C301.682 139.475 301.528 139.421 301.396 139.328L300.141 138.608C299.995 138.526 299.869 138.412 299.772 138.275C299.688 138.167 299.639 138.035 299.632 137.898C299.625 137.866 299.625 137.833 299.632 137.801C299.644 137.767 299.665 137.737 299.693 137.713L310.04 130.079ZM302.756 130.079C302.768 129.95 302.768 129.821 302.756 129.693V128.561C302.768 128.423 302.768 128.285 302.756 128.148C302.727 127.84 302.635 127.541 302.484 127.271C302.282 126.942 301.993 126.675 301.65 126.498C301.247 126.261 300.966 126.2 300.773 126.305C300.69 126.372 300.622 126.456 300.575 126.551C300.528 126.647 300.503 126.752 300.501 126.858C300.501 126.937 300.501 127.06 300.501 127.244C300.501 127.428 300.501 127.604 300.501 127.797C300.501 127.99 300.501 128.183 300.501 128.367C300.501 128.552 300.501 128.692 300.501 128.789C300.533 129.096 300.626 129.394 300.773 129.666C300.988 130 301.292 130.267 301.65 130.438C302.054 130.675 302.335 130.737 302.484 130.632C302.563 130.568 302.628 130.488 302.673 130.397C302.719 130.306 302.744 130.207 302.747 130.105L302.756 130.079ZM310.707 137.283C311.194 137.559 311.645 137.895 312.049 138.284C312.405 138.632 312.723 139.018 312.997 139.433C313.245 139.797 313.442 140.193 313.585 140.609C313.707 140.962 313.789 141.327 313.831 141.697C313.831 142.075 313.831 142.47 313.831 142.882C313.831 143.295 313.831 143.672 313.831 144.023C313.804 144.306 313.72 144.58 313.585 144.83C313.525 144.948 313.442 145.053 313.341 145.139C313.24 145.225 313.123 145.29 312.997 145.33C312.687 145.421 312.359 145.421 312.049 145.33C311.574 145.221 311.121 145.034 310.707 144.778C310.222 144.505 309.774 144.171 309.373 143.786C309.013 143.445 308.692 143.066 308.416 142.654C308.173 142.287 307.976 141.892 307.828 141.478C307.705 141.126 307.626 140.761 307.591 140.39C307.591 140.004 307.591 139.609 307.591 139.196C307.591 138.784 307.591 138.407 307.591 138.064C307.611 137.779 307.692 137.5 307.828 137.248C307.957 137.016 308.166 136.838 308.416 136.748C308.73 136.671 309.058 136.671 309.373 136.748C309.847 136.855 310.298 137.045 310.707 137.31V137.283ZM311.821 142.654C311.828 142.525 311.828 142.396 311.821 142.268V141.162C311.821 140.987 311.821 140.846 311.821 140.758C311.784 140.452 311.692 140.154 311.549 139.881C311.331 139.549 311.028 139.283 310.671 139.109C310.268 138.872 309.987 138.81 309.838 138.916C309.755 138.982 309.687 139.066 309.64 139.162C309.593 139.257 309.568 139.362 309.566 139.468C309.557 139.597 309.557 139.726 309.566 139.855C309.566 140.03 309.566 140.214 309.566 140.407C309.566 140.6 309.566 140.794 309.566 140.987C309.557 141.124 309.557 141.262 309.566 141.399C309.593 141.708 309.686 142.007 309.838 142.277C310.037 142.607 310.326 142.875 310.671 143.049C311.075 143.286 311.356 143.347 311.549 143.242C311.631 143.173 311.698 143.087 311.745 142.99C311.792 142.893 311.818 142.788 311.821 142.68V142.654Z" fill="#FAFAFA"/>
<path d="M216.888 42.7888C216.856 42.2183 216.691 41.6632 216.406 41.1679C216.121 40.6727 215.724 40.251 215.247 39.9368L191.483 26.2295C190.605 25.7029 189.842 26.1242 189.842 27.1772V50.1427C189.872 50.7147 190.037 51.2715 190.322 51.7684C190.607 52.2653 191.004 52.6883 191.483 53.0035L201.434 58.7426L204.576 71.432C204.61 71.6286 204.71 71.8076 204.86 71.9394C205.01 72.0713 205.2 72.1482 205.4 72.1574C205.599 72.1666 205.796 72.1076 205.957 71.99C206.118 71.8725 206.235 71.7036 206.287 71.511L209.165 63.2006L215.247 66.7108C216.124 67.2373 216.888 66.8161 216.888 65.763V42.7888Z" fill="#90CAF9"/>
<path opacity="0.5" d="M216.888 42.7888C216.856 42.2183 216.691 41.6632 216.406 41.1679C216.121 40.6727 215.724 40.251 215.247 39.9368L191.483 26.2295C190.605 25.7029 189.842 26.1242 189.842 27.1772V50.1427C189.872 50.7147 190.037 51.2715 190.322 51.7684C190.607 52.2653 191.004 52.6883 191.483 53.0035L201.434 58.7426L204.576 71.432C204.61 71.6286 204.71 71.8076 204.86 71.9394C205.01 72.0713 205.2 72.1482 205.4 72.1574C205.599 72.1666 205.796 72.1076 205.957 71.99C206.118 71.8725 206.235 71.7036 206.287 71.511L209.165 63.2006L215.247 66.7108C216.124 67.2373 216.888 66.8161 216.888 65.763V42.7888Z" fill="white"/>
<path d="M198.845 36.7162C199.33 36.9921 199.779 37.3282 200.179 37.7166C200.535 38.0672 200.856 38.4523 201.136 38.8662C201.38 39.2321 201.578 39.6271 201.724 40.0421C201.847 40.3936 201.927 40.7592 201.961 41.1303C201.961 41.5076 202.005 41.9025 202.005 42.315C202.005 42.7274 202.005 43.1048 201.961 43.4558C201.941 43.7415 201.86 44.0198 201.724 44.2719C201.596 44.5037 201.387 44.6792 201.136 44.7633C200.827 44.8641 200.496 44.8793 200.179 44.8072C199.706 44.6979 199.255 44.5079 198.845 44.2456C198.356 43.9756 197.905 43.6422 197.503 43.2539C197.143 42.9154 196.825 42.5354 196.555 42.1219C196.307 41.758 196.109 41.3625 195.967 40.946C195.845 40.5935 195.763 40.2285 195.721 39.8578C195.721 39.4717 195.721 39.0768 195.721 38.6731C195.721 38.2695 195.721 37.8746 195.721 37.5323C195.748 37.2467 195.832 36.9693 195.967 36.7162C196.094 36.4822 196.304 36.3038 196.555 36.216C196.866 36.1383 197.192 36.1383 197.503 36.216C197.976 36.304 198.43 36.4732 198.845 36.7162ZM207.235 42.0605C207.327 41.9985 207.432 41.9593 207.542 41.9464C207.703 41.9569 207.858 42.0116 207.989 42.1044L209.244 42.8239C209.386 42.9083 209.511 43.0184 209.613 43.1486C209.694 43.2615 209.74 43.3959 209.745 43.5348C209.748 43.5669 209.748 43.5992 209.745 43.6313C209.727 43.6625 209.706 43.6919 209.683 43.719L199.346 51.3537C199.254 51.4157 199.148 51.4549 199.038 51.4678C198.878 51.4573 198.723 51.4026 198.591 51.3098L197.336 50.5903C197.191 50.5108 197.065 50.3999 196.967 50.2656C196.886 50.1527 196.84 50.0183 196.836 49.8794C196.828 49.8508 196.828 49.8203 196.836 49.7917C196.848 49.7548 196.869 49.7216 196.897 49.6951L207.235 42.0605ZM199.951 42.0605C199.964 41.9321 199.964 41.8027 199.951 41.6744V40.5423C199.963 40.408 199.963 40.2729 199.951 40.1386C199.925 39.8298 199.832 39.5304 199.679 39.2611C199.48 38.9277 199.191 38.6571 198.845 38.4801C198.442 38.2519 198.161 38.1817 197.968 38.2958C197.887 38.364 197.82 38.4484 197.774 38.5436C197.727 38.6387 197.7 38.7426 197.696 38.8486C197.696 38.9188 197.696 39.0505 197.696 39.226C197.696 39.4015 197.696 39.5858 197.696 39.7876C197.696 39.9895 197.696 40.1737 197.696 40.358C197.696 40.5423 197.696 40.6827 197.696 40.7705C197.73 41.0776 197.822 41.3754 197.968 41.648C198.183 41.9818 198.487 42.2492 198.845 42.4203C199.249 42.6572 199.53 42.7186 199.679 42.6133C199.76 42.5507 199.826 42.4711 199.873 42.3802C199.92 42.2892 199.947 42.1891 199.951 42.0868V42.0605ZM207.902 49.2652C208.392 49.5411 208.843 49.8804 209.244 50.2743C209.602 50.6178 209.92 51.0005 210.192 51.4152C210.438 51.78 210.636 52.1752 210.78 52.5911C210.901 52.9438 210.984 53.3087 211.026 53.6792C211.026 54.0653 211.026 54.4602 211.026 54.8727C211.026 55.2851 211.026 55.6625 211.026 56.0047C210.999 56.2903 210.915 56.5678 210.78 56.8209C210.653 57.0549 210.443 57.2332 210.192 57.3211C209.882 57.408 209.554 57.408 209.244 57.3211C208.769 57.2117 208.316 57.0249 207.902 56.7682C207.42 56.4901 206.973 56.1573 206.568 55.7766C206.21 55.4309 205.889 55.0485 205.611 54.6358C205.37 54.268 205.173 53.8733 205.023 53.4598C204.9 53.1083 204.82 52.7428 204.786 52.3717C204.786 51.9943 204.743 51.5994 204.743 51.187C204.743 50.7745 204.743 50.3972 204.786 50.0462C204.808 49.7606 204.888 49.4826 205.023 49.23C205.155 49.0019 205.363 48.8278 205.611 48.7386C205.92 48.6391 206.25 48.6209 206.568 48.686C207.044 48.8094 207.495 49.0142 207.902 49.2915V49.2652ZM209.016 54.6358C209.023 54.5071 209.023 54.3782 209.016 54.2496V53.1439C209.016 52.9684 209.016 52.828 209.016 52.7402C208.986 52.4323 208.893 52.1337 208.744 51.8627C208.529 51.5262 208.226 51.2559 207.867 51.0817C207.463 50.8535 207.182 50.7833 207.033 50.8974C206.949 50.9628 206.88 51.0466 206.833 51.1424C206.786 51.2382 206.761 51.3435 206.761 51.4502C206.751 51.5758 206.751 51.702 206.761 51.8276C206.761 52.0031 206.761 52.1874 206.761 52.3892C206.761 52.5911 206.761 52.7753 206.761 52.9596C206.752 53.097 206.752 53.2347 206.761 53.3721C206.787 53.6809 206.88 53.9804 207.033 54.2496C207.232 54.583 207.521 54.8536 207.867 55.0306C208.27 55.2588 208.563 55.3202 208.744 55.2149C208.827 55.1483 208.894 55.0642 208.941 54.9687C208.988 54.8732 209.014 54.7685 209.016 54.6621V54.6358Z" fill="#FAFAFA"/>
<path d="M53.7338 130.131C53.765 129.561 53.9298 129.005 54.2148 128.51C54.4998 128.015 54.8972 127.593 55.3749 127.279L79.1389 113.563C80.0164 113.037 80.7799 113.467 80.7799 114.52V137.485C80.7501 138.056 80.5859 138.612 80.3008 139.108C80.0156 139.603 79.6175 140.024 79.1389 140.337L69.1875 146.076L66.0458 158.774C66.0563 159.007 65.9739 159.235 65.8167 159.407C65.6596 159.579 65.4405 159.681 65.2078 159.691C64.9751 159.702 64.7477 159.62 64.5757 159.462C64.4037 159.305 64.3012 159.086 64.2907 158.853L61.4212 150.543L55.3397 154.053C54.4622 154.58 53.6987 154.15 53.6987 153.105L53.7338 130.131Z" fill="#90CAF9"/>
<g opacity="0.5">
<path d="M53.7338 130.131C53.765 129.561 53.9298 129.005 54.2148 128.51C54.4998 128.015 54.8972 127.593 55.3749 127.279L79.1389 113.563C80.0164 113.037 80.7799 113.467 80.7799 114.52V137.485C80.7501 138.056 80.5859 138.612 80.3008 139.108C80.0156 139.603 79.6175 140.024 79.1389 140.337L69.1875 146.076L66.0458 158.774C66.0563 159.007 65.9739 159.235 65.8167 159.407C65.6596 159.579 65.4405 159.681 65.2078 159.691C64.9751 159.702 64.7477 159.62 64.5757 159.462C64.4037 159.305 64.3012 159.086 64.2907 158.853L61.4212 150.543L55.3397 154.053C54.4622 154.58 53.6987 154.15 53.6987 153.105L53.7338 130.131Z" fill="#E7004C"/>
</g>
<path d="M62.0354 128.42C62.5104 128.125 63.033 127.914 63.5799 127.797C63.9472 127.723 64.3271 127.741 64.6856 127.85C64.9741 127.954 65.2144 128.16 65.3614 128.429C65.5183 128.719 65.6111 129.039 65.6334 129.368C65.6685 129.772 65.686 130.21 65.686 130.684C65.686 131.158 65.6685 131.614 65.6334 132.053C65.595 132.484 65.5036 132.908 65.3614 133.317C65.1932 133.794 64.9662 134.248 64.6856 134.668C64.3681 135.147 63.9972 135.589 63.5799 135.985C63.1136 136.429 62.5949 136.815 62.0354 137.134C61.5547 137.428 61.0305 137.644 60.4822 137.775C60.1189 137.856 59.7409 137.841 59.3852 137.731C59.0968 137.627 58.8564 137.421 58.7095 137.152C58.5498 136.862 58.454 136.542 58.4287 136.213C58.4287 135.809 58.4287 135.335 58.4287 134.896C58.4287 134.458 58.4287 133.966 58.4287 133.527C58.4707 133.096 58.565 132.672 58.7095 132.264C58.874 131.785 59.1013 131.331 59.3852 130.912C59.7044 130.434 60.072 129.99 60.4822 129.587C60.9505 129.136 61.4721 128.744 62.0354 128.42ZM71.6885 123.409C71.7881 123.217 71.9056 123.035 72.0395 122.865C72.1872 122.697 72.3622 122.554 72.5573 122.444L74.014 121.566C74.135 121.477 74.2864 121.439 74.4352 121.461C74.5405 121.461 74.5932 121.575 74.5932 121.716C74.5993 121.762 74.5993 121.809 74.5932 121.856L74.523 122.04L62.5707 144.664C62.4712 144.853 62.3537 145.032 62.2197 145.199C62.0739 145.369 61.8985 145.512 61.702 145.62L60.254 146.498C60.1295 146.587 59.9756 146.624 59.824 146.603C59.7187 146.603 59.6661 146.489 59.6661 146.348C59.6599 146.302 59.6599 146.255 59.6661 146.208L59.7363 146.024L71.6885 123.409ZM63.3167 133.176C63.3286 133.019 63.3286 132.86 63.3167 132.703V131.395C63.3294 131.246 63.3294 131.096 63.3167 130.947C63.3119 130.824 63.2813 130.704 63.2268 130.594C63.1724 130.483 63.0954 130.385 63.0007 130.307C62.8252 130.184 62.5005 130.307 62.0354 130.526C61.6765 130.707 61.3701 130.977 61.1457 131.311C60.9213 131.644 60.7865 132.03 60.7542 132.43C60.7414 132.591 60.7414 132.752 60.7542 132.913C60.7542 133.124 60.7542 133.343 60.7542 133.571C60.7542 133.799 60.7542 134.01 60.7542 134.221C60.7405 134.367 60.7405 134.514 60.7542 134.659C60.7542 134.783 60.7827 134.906 60.8375 135.017C60.8923 135.128 60.9719 135.225 61.0701 135.3C61.2456 135.423 61.5616 135.344 62.0354 135.081C62.4314 134.882 62.7653 134.578 63.0007 134.203C63.1755 133.886 63.283 133.537 63.3167 133.176ZM72.5046 130.895C72.9836 130.599 73.5085 130.386 74.0579 130.263C74.4222 130.189 74.7993 130.207 75.1548 130.316C75.4432 130.42 75.6836 130.626 75.8305 130.895C75.9903 131.184 76.086 131.504 76.1113 131.834C76.1113 132.237 76.1552 132.711 76.1552 133.15C76.1552 133.589 76.1552 134.08 76.1113 134.519C76.0701 134.95 75.9757 135.375 75.8305 135.783C75.6644 136.263 75.4373 136.72 75.1548 137.143C74.4826 138.158 73.5807 138.999 72.5222 139.6C72.0456 139.896 71.5239 140.113 70.9777 140.241C70.6119 140.326 70.2298 140.311 69.872 140.197C69.5818 140.096 69.3405 139.889 69.1962 139.618C69.0383 139.328 68.9454 139.008 68.9242 138.679C68.9242 138.284 68.8715 137.801 68.8715 137.371C68.8715 136.941 68.8716 136.432 68.9242 135.993C68.9621 135.565 69.0535 135.144 69.1962 134.738C69.3643 134.259 69.5913 133.802 69.872 133.378C70.1915 132.898 70.5623 132.454 70.9777 132.053C71.432 131.592 71.9455 131.194 72.5046 130.868V130.895ZM73.7858 135.616C73.7978 135.458 73.7978 135.3 73.7858 135.142V133.843C73.7985 133.694 73.7985 133.545 73.7858 133.396C73.7865 133.272 73.7583 133.149 73.7035 133.038C73.6487 132.927 73.5687 132.83 73.4699 132.755C73.2944 132.632 72.9785 132.703 72.5046 132.975C72.1101 133.175 71.7768 133.479 71.5393 133.852C71.3698 134.165 71.2625 134.508 71.2234 134.861C71.2149 135.019 71.2149 135.177 71.2234 135.335C71.2234 135.555 71.2234 135.774 71.2234 135.993C71.2234 136.213 71.2234 136.441 71.2234 136.643C71.2142 136.789 71.2142 136.935 71.2234 137.081C71.2282 137.204 71.2588 137.325 71.3132 137.435C71.3676 137.546 71.4447 137.643 71.5393 137.722C71.7148 137.845 72.0395 137.775 72.5046 137.503C72.9008 137.304 73.2348 137.001 73.4699 136.625C73.6509 136.308 73.7588 135.954 73.7858 135.59V135.616Z" fill="#FAFAFA"/>
</svg>
