<?xml version="1.0" encoding="utf-8"?>
<!-- Generator: Adobe Illustrator 23.0.6, SVG Export Plug-In . SVG Version: 6.00 Build 0)  -->
<svg version="1.1" id="Capa_1" xmlns="http://www.w3.org/2000/svg" xmlns:xlink="http://www.w3.org/1999/xlink" x="0px" y="0px"
	 viewBox="0 0 512 512" style="enable-background:new 0 0 512 512;" xml:space="preserve">
<g>
	<g>
		<path style="fill:#EA8B1D" d="M508.2,150.1c-2.8-3.2-6.9-5-11.2-5h-58.5V92.9c0-8.3-6.7-15-15-15H166V60c0-8.3-6.7-15-15-15H15C6.7,45,0,51.7,0,60
			l0,392c0,3.5,1.1,6.9,3.4,9.6C6.2,465,10.5,467,15,467h449.7c7.6,0,14.1-5.8,14.9-13.4l32.3-291.9
			C512.4,157.5,511,153.3,508.2,150.1z M30,75h106v17.9c0,8.3,6.7,15,15,15h257.4v37.2H75c-7.1,0-13.3,5-14.7,12L30,304.6V75z
			 M451.3,437H33.4l53.8-261.9h393L451.3,437z"/>
	</g>
</g>
</svg>
