<svg width="20" height="20" viewBox="0 0 20 20" fill="none" xmlns="http://www.w3.org/2000/svg">
<path fill-rule="evenodd" clip-rule="evenodd" d="M19.3211 10.2538C19.3211 10.2538 19.1466 10.6465 18.7906 11.2119C18.7906 11.2119 18.0892 12.326 17.1607 13.2544C17.1607 13.2544 14.1651 16.25 10 16.25C10 16.25 5.83487 16.25 2.83931 13.2544C2.83931 13.2544 1.91082 12.3259 1.20939 11.2119C1.20939 11.2119 0.853387 10.6465 0.678868 10.2538C0.607044 10.0922 0.607044 9.90777 0.678868 9.74616C0.678868 9.74616 0.853387 9.3535 1.20939 8.78809C1.20939 8.78809 1.91081 7.67405 2.83931 6.74556C2.83931 6.74556 5.83487 3.75 10 3.75C10 3.75 14.1651 3.75 17.1607 6.74556C17.1607 6.74556 18.0892 7.67405 18.7906 8.78809C18.7906 8.78809 19.1466 9.35349 19.3211 9.74616C19.393 9.90777 19.393 10.0922 19.3211 10.2538ZM17.7328 10.5459C17.7328 10.5459 17.9271 10.2374 18.0537 10C18.0537 10 17.9271 9.7626 17.7328 9.4541C17.7328 9.4541 17.1061 8.45875 16.2768 7.62944C16.2768 7.62944 13.6474 5 10 5C10 5 6.35263 5 3.72319 7.62944C3.72319 7.62944 2.89388 8.45876 2.26718 9.4541C2.26718 9.4541 2.07294 9.76259 1.94632 10C1.94632 10 2.07294 10.2374 2.26718 10.5459C2.26718 10.5459 2.89388 11.5412 3.72319 12.3706C3.72319 12.3706 6.35263 15 10 15C10 15 13.6474 15 16.2768 12.3706C16.2768 12.3706 17.1061 11.5412 17.7328 10.5459Z" fill="#616161"/>
<path fill-rule="evenodd" clip-rule="evenodd" d="M11.3374 8.65046C11.0816 8.39747 10.754 8.2527 10.4532 8.17413C10.3058 8.13564 10.1786 8.11674 10.0926 8.10767C10.05 8.10318 10.019 8.10125 10.0023 8.10045L9.99144 8.10002C9.63163 8.10205 9.2976 8.23134 9.02934 8.38848C8.89796 8.46545 8.79465 8.54202 8.72737 8.59647C8.69411 8.62338 8.6708 8.64396 8.65843 8.6552L8.65046 8.66257C8.39747 8.91842 8.2527 9.24604 8.17413 9.54684C8.13564 9.69417 8.11674 9.82136 8.10767 9.90744C8.10318 9.94998 8.10125 9.98103 8.10045 9.99771L8.10002 10.0086C8.10205 10.3684 8.23134 10.7024 8.38848 10.9707C8.46545 11.102 8.54202 11.2053 8.59647 11.2726C8.62338 11.3059 8.64396 11.3292 8.6552 11.3416L8.66257 11.3495C8.91842 11.6025 9.24604 11.7473 9.54684 11.8259C9.69417 11.8644 9.82136 11.8833 9.90744 11.8923C9.94998 11.8968 9.98103 11.8988 9.99771 11.8996L10.0086 11.9C10.3684 11.898 10.7024 11.7687 10.9707 11.6115C11.102 11.5346 11.2053 11.458 11.2726 11.4035C11.3059 11.3766 11.3292 11.356 11.3416 11.3448L11.3495 11.3374C11.6025 11.0816 11.7473 10.754 11.8259 10.4532C11.8644 10.3058 11.8833 10.1786 11.8923 10.0926C11.8968 10.05 11.8988 10.019 11.8996 10.0023L11.9 9.99143C11.898 9.63163 11.7687 9.2976 11.6115 9.02934C11.5346 8.89796 11.458 8.79465 11.4035 8.72737C11.3766 8.69411 11.356 8.6708 11.3448 8.65843L11.3374 8.65046ZM13 10C13 8.75736 12.1213 7.87868 12.1213 7.87868C11.2426 7 10 7 10 7C8.75736 7 7.87868 7.87868 7.87868 7.87868C7 8.75736 7 10 7 10C7 11.2426 7.87868 12.1213 7.87868 12.1213C8.75736 13 10 13 10 13C11.2426 13 12.1213 12.1213 12.1213 12.1213C13 11.2426 13 10 13 10Z" fill="#616161"/>
</svg>
