<svg xmlns="http://www.w3.org/2000/svg" width="11.172" height="11.172" viewBox="0 0 11.172 11.172"><g transform="translate(-2.5 -2.5)"><path d="M14.517,13.5h4.577a1.017,1.017,0,0,1,1.017,1.017v4.577a1.017,1.017,0,0,1-1.017,1.017H14.517A1.017,1.017,0,0,1,13.5,19.094V14.517A1.017,1.017,0,0,1,14.517,13.5Z" transform="translate(-6.94 -6.94)" fill="none" stroke="#006675" stroke-linecap="round" stroke-linejoin="round" stroke-width="1"/><path d="M4.526,9.612H4.017A1.017,1.017,0,0,1,3,8.594V4.017A1.017,1.017,0,0,1,4.017,3H8.594A1.017,1.017,0,0,1,9.612,4.017v.509" fill="none" stroke="#006675" stroke-linecap="round" stroke-linejoin="round" stroke-width="1"/></g></svg>