<svg width="20" height="20" viewBox="0 0 20 20" fill="none" xmlns="http://www.w3.org/2000/svg">
<path d="M8.686 2.85134L2.12727 14.7763C1.57744 15.776 2.30069 16.9992 3.44159 16.9992H16.559C17.7 16.9992 18.4232 15.776 17.8734 14.7763L11.3146 2.85134C10.7448 1.81518 9.25588 1.81518 8.686 2.85134ZM10.0003 6.74918C10.4145 6.74918 10.7503 7.08497 10.7503 7.49918V11.4992C10.7503 11.9134 10.4145 12.2492 10.0003 12.2492C9.58609 12.2492 9.25031 11.9134 9.25031 11.4992V7.49918C9.25031 7.08497 9.58609 6.74918 10.0003 6.74918ZM10.7503 13.7492C10.7503 14.1634 10.4145 14.4992 10.0003 14.4992C9.58609 14.4992 9.25031 14.1634 9.25031 13.7492C9.25031 13.335 9.58609 12.9992 10.0003 12.9992C10.4145 12.9992 10.7503 13.335 10.7503 13.7492Z" fill="#242424"/>
</svg>
