<svg width="16" height="16" viewBox="0 0 16 16" fill="none" xmlns="http://www.w3.org/2000/svg">
<path fill-rule="evenodd" clip-rule="evenodd" d="M8 6C9.10457 6 10 5.10457 10 4C10 2.89543 9.10457 2 8 2C6.89543 2 6 2.89543 6 4C6 5.10457 6.89543 6 8 6ZM3.5 9L4.5 8.5H11.5L12 9L12.5 9.5V11L11.5 12.5L9.5 13.5H8L6.5 13H5L4.5 12L3.5 11V10V9Z" fill="#FDF7EE"/>
<path d="M11.5 8C12.3284 8 13 8.67157 13 9.5V10C13 11.9714 11.1405 14 8 14C4.85951 14 3 11.9714 3 10V9.5C3 8.67157 3.67157 8 4.5 8H11.5ZM11.5 9H4.5C4.22386 9 4 9.22386 4 9.5V10C4 11.4376 5.43216 13 8 13C10.5678 13 12 11.4376 12 10V9.5C12 9.22386 11.7761 9 11.5 9ZM8 1.5C9.51878 1.5 10.75 2.73122 10.75 4.25C10.75 5.76878 9.51878 7 8 7C6.48122 7 5.25 5.76878 5.25 4.25C5.25 2.73122 6.48122 1.5 8 1.5ZM8 2.5C7.0335 2.5 6.25 3.2835 6.25 4.25C6.25 5.2165 7.0335 6 8 6C8.9665 6 9.75 5.2165 9.75 4.25C9.75 3.2835 8.9665 2.5 8 2.5Z" fill="#FDF7EE"/>
</svg>
