<?xml version="1.0" encoding="utf-8"?>
<!-- Generator: Adobe Illustrator 23.0.6, SVG Export Plug-In . SVG Version: 6.00 Build 0)  -->
<svg version="1.1" id="Capa_1" xmlns="http://www.w3.org/2000/svg" xmlns:xlink="http://www.w3.org/1999/xlink" x="0px" y="0px"
	 viewBox="0 0 512 512" style="enable-background:new 0 0 512 512;" xml:space="preserve">
<g>
	<g>
		<path style="fill:#ffffff" d="M437,310.8c-28.4-28.4-62.2-49.2-99.1-61.7c34.1-25.2,56.2-65.6,56.2-111.1C394.1,61.9,332.1,0,256,0
			S117.9,61.9,117.9,138.1c0,45.5,22.1,85.9,56.2,111.1c-36.9,12.4-70.8,33.3-99.1,61.7c-48.4,48.4-75,112.6-75,181
			C0,503,9,512,20.2,512h471.7c11.1,0,20.2-9,20.2-20.2C512,423.5,485.4,359.2,437,310.8z M158.2,138.1c0-53.9,43.9-97.8,97.8-97.8
			s97.8,43.9,97.8,97.8s-43.9,97.8-97.8,97.8C202.1,235.8,158.2,192,158.2,138.1z M41.2,471.7C51.4,362.2,143.9,276.2,256,276.2
			s204.6,86,214.8,195.5L41.2,471.7L41.2,471.7z"/>
	</g>
</g>
</svg>
