<svg width="20" height="20" viewBox="0 0 20 20" fill="none" xmlns="http://www.w3.org/2000/svg">
<path d="M6.46443 5.58052C6.22036 5.33644 5.82463 5.33644 5.58055 5.58052C5.33647 5.8246 5.33647 6.22033 5.58055 6.4644L9.11611 9.99996L5.5806 13.5355C5.33652 13.7795 5.33652 14.1753 5.5806 14.4194C5.82467 14.6634 6.2204 14.6634 6.46448 14.4194L9.99999 10.8838L13.5355 14.4194C13.7796 14.6634 14.1753 14.6634 14.4194 14.4194C14.6635 14.1753 14.6635 13.7795 14.4194 13.5355L10.8839 9.99996L14.4194 6.4644C14.6635 6.22033 14.6635 5.8246 14.4194 5.58052C14.1754 5.33644 13.7796 5.33644 13.5355 5.58052L9.99999 9.11608L6.46443 5.58052Z" fill="#242424"/>
</svg>
