<svg xmlns="http://www.w3.org/2000/svg" width="13.314" height="18.54" viewBox="0 0 13.314 18.54"><g transform="translate(-67.988 -1.702)"><path d="M133.312,159.411h2.5a.266.266,0,0,0,0-.533h-2.5a.266.266,0,1,0,0,.533Z" transform="translate(-62.755 -151.611)" fill="#fff"/><path d="M139.556,203.692h-6.244a.266.266,0,1,0,0,.533h6.244a.266.266,0,1,0,0-.533Z" transform="translate(-62.755 -194.838)" fill="#fff"/><path d="M139.556,248.507h-6.244a.266.266,0,1,0,0,.533h6.244a.266.266,0,1,0,0-.533Z" transform="translate(-62.755 -238.066)" fill="#fff"/><path d="M139.556,293.321h-6.244a.266.266,0,1,0,0,.533h6.244a.266.266,0,1,0,0-.533Z" transform="translate(-62.755 -281.294)" fill="#fff"/><path d="M139.556,338.136h-6.244a.266.266,0,1,0,0,.533h6.244a.266.266,0,1,0,0-.533Z" transform="translate(-62.755 -324.522)" fill="#fff"/><path d="M139.556,382.95h-6.244a.266.266,0,0,0,0,.533h6.244a.266.266,0,0,0,0-.533Z" transform="translate(-62.755 -367.749)" fill="#fff"/><path d="M263.426,427.765h-1.7a.266.266,0,0,0,0,.533h1.7a.266.266,0,0,0,0-.533Z" transform="translate(-186.625 -410.978)" fill="#fff"/><path d="M81.035,62.534a.266.266,0,0,0,.266-.266V54.383a.964.964,0,0,0-.963-.963h-.9v-.31a.964.964,0,0,0-.963-.963H78.3v.533h.177a.431.431,0,0,1,.431.431V66.663a.431.431,0,0,1-.431.431H68.951a.431.431,0,0,1-.431-.431V59.6a.266.266,0,1,0-.533,0v7.064a.964.964,0,0,0,.963.963h.9v.31a.964.964,0,0,0,.963.963h9.528a.964.964,0,0,0,.963-.963v-4.6a.266.266,0,0,0-.533,0v4.6a.431.431,0,0,1-.431.431H70.811a.431.431,0,0,1-.431-.431v-.31h8.1a.964.964,0,0,0,.963-.963V53.952h.9a.431.431,0,0,1,.431.431v7.885A.266.266,0,0,0,81.035,62.534Z" transform="translate(0 -48.658)" fill="#fff"/><path d="M68.254,21.355a.266.266,0,0,0,.266-.266V15.664a.431.431,0,0,1,.431-.431H71.49v1.575a.333.333,0,1,1-.666,0v-.563a.266.266,0,0,0-.533,0v.563a.866.866,0,0,0,1.731,0V15.234h1.3V14.7h-1.3v-.273a1.1,1.1,0,0,0-1.115-1.1,1.106,1.106,0,0,0-1.087,1.1V14.7h-.869a.964.964,0,0,0-.963.963v5.425A.266.266,0,0,0,68.254,21.355Zm2.1-6.927a.571.571,0,0,1,.561-.569.569.569,0,0,1,.576.569V14.7H70.353Z" transform="translate(0 -11.213)" fill="#fff"/><path d="M228.889,4.144l.36.12a1.644,1.644,0,0,0,.131.316l-.17.34a.22.22,0,0,0,.041.254l.2.2a.22.22,0,0,0,.254.041l.34-.17a1.645,1.645,0,0,0,.316.131l.12.36a.22.22,0,0,0,.209.15h.282a.22.22,0,0,0,.209-.151l.12-.36a1.647,1.647,0,0,0,.316-.131l.339.17a.22.22,0,0,0,.254-.041l.2-.2a.22.22,0,0,0,.041-.254l-.17-.34a1.643,1.643,0,0,0,.131-.316l.36-.12a.22.22,0,0,0,.15-.209V3.653a.22.22,0,0,0-.151-.209h0l-.36-.12a1.645,1.645,0,0,0-.131-.316l.17-.34a.22.22,0,0,0-.041-.254l-.2-.2a.22.22,0,0,0-.254-.041l-.34.17a1.643,1.643,0,0,0-.316-.131l-.12-.36a.22.22,0,0,0-.209-.151h-.282a.22.22,0,0,0-.209.151l-.12.36a1.644,1.644,0,0,0-.316.131l-.34-.17a.22.22,0,0,0-.254.041l-.2.2a.22.22,0,0,0-.041.254l.17.34a1.64,1.64,0,0,0-.131.316l-.36.12a.22.22,0,0,0-.15.209v.282A.22.22,0,0,0,228.889,4.144Zm.07-.491.415-.139a.11.11,0,0,0,.072-.077,1.42,1.42,0,0,1,.153-.37.11.11,0,0,0,0-.105l-.2-.392.2-.2.392.2a.11.11,0,0,0,.105,0,1.42,1.42,0,0,1,.37-.153.11.11,0,0,0,.077-.072l.138-.415h.282l.138.415a.11.11,0,0,0,.077.072,1.42,1.42,0,0,1,.37.153.11.11,0,0,0,.105,0l.392-.2.2.2-.2.392a.11.11,0,0,0,0,.105,1.419,1.419,0,0,1,.154.37.11.11,0,0,0,.072.077l.415.138v.282l-.415.139a.11.11,0,0,0-.072.077,1.421,1.421,0,0,1-.153.37.11.11,0,0,0,0,.105l.2.392-.2.2-.392-.2a.11.11,0,0,0-.105,0,1.422,1.422,0,0,1-.37.153.11.11,0,0,0-.077.072l-.138.415h-.282l-.139-.415a.11.11,0,0,0-.077-.072,1.42,1.42,0,0,1-.37-.154.11.11,0,0,0-.105,0l-.392.2-.2-.2.2-.392a.11.11,0,0,0,0-.105,1.42,1.42,0,0,1-.154-.37.11.11,0,0,0-.072-.077l-.415-.138Z" transform="translate(-155.058 0)" fill="#fff"/><path d="M254.829,29a1.211,1.211,0,1,0-1.211-1.211A1.211,1.211,0,0,0,254.829,29Zm0-2.2a.991.991,0,1,1-.991.991A.991.991,0,0,1,254.829,26.8Z" transform="translate(-179.057 -23.999)" fill="#fff"/><path d="M275.828,49.232a.44.44,0,1,0-.44-.44A.44.44,0,0,0,275.828,49.232Zm0-.661a.22.22,0,1,1-.22.22A.22.22,0,0,1,275.828,48.571Z" transform="translate(-200.057 -44.997)" fill="#fff"/></g></svg>