<svg width="20" height="20" viewBox="0 0 20 20" fill="none" xmlns="http://www.w3.org/2000/svg">
<path d="M18.1406 7.78906V4.03906C18.1406 3.69388 17.8608 3.41406 17.5156 3.41406C17.1704 3.41406 16.8906 3.69388 16.8906 4.03906V7.16406H13.7656C13.4204 7.16406 13.1406 7.44388 13.1406 7.78906C13.1406 8.13424 13.4204 8.41406 13.7656 8.41406H17.5156C17.8608 8.41406 18.1406 8.13424 18.1406 7.78906Z" fill="#242424"/>
<path d="M17.0739 8.23307L17.0744 8.23352C17.1916 8.35033 17.3502 8.41593 17.5157 8.41593L17.5166 8.41593C17.6824 8.41568 17.8412 8.3496 17.9583 8.23222C18.0751 8.11506 18.1407 7.95637 18.1407 7.79093L18.1407 7.79001C18.1404 7.62425 18.0744 7.46537 17.957 7.34834L17.9568 7.34814L15.3007 4.6999C13.6932 3.09104 11.4615 2.64642 11.4615 2.64642C9.22986 2.20181 7.12738 3.07218 7.12738 3.07218C5.0249 3.94256 3.7605 5.83445 3.7605 5.83445C2.49609 7.72635 2.49609 10.0019 2.49609 10.0019C2.49609 12.2774 3.7605 14.1693 3.7605 14.1693C5.0249 16.0612 7.12738 16.9316 7.12738 16.9316C9.22986 17.8019 11.4615 17.3573 11.4615 17.3573C13.693 16.9127 15.3013 15.3033 15.3013 15.3033L15.3016 15.303C15.4187 15.1858 15.4844 15.0269 15.4844 14.8612V14.861C15.4844 14.6952 15.4185 14.5363 15.3012 14.4191C15.184 14.302 15.0251 14.2362 14.8594 14.2362H14.8592C14.6934 14.2363 14.5345 14.3022 14.4173 14.4195C13.077 15.7609 11.2173 16.1314 11.2173 16.1314C9.35757 16.5019 7.6055 15.7766 7.6055 15.7766C5.85343 15.0513 4.79976 13.4747 4.79976 13.4747C3.74609 11.8981 3.74609 10.0019 3.74609 10.0019C3.74609 8.1056 4.79976 6.52902 4.79976 6.52902C5.85343 4.95244 7.6055 4.22713 7.6055 4.22713C9.35757 3.50182 11.2173 3.87233 11.2173 3.87233C13.077 4.24284 14.4181 5.58508 14.4181 5.58508L17.0739 8.23307Z" fill="#242424"/>
</svg>
