<svg width="21" height="21" viewBox="0 0 21 21" fill="none" xmlns="http://www.w3.org/2000/svg">
<path fill-rule="evenodd" clip-rule="evenodd" d="M13.2 2.57507L13.2 1.95007C13.2 1.6049 13.4799 1.32507 13.825 1.32507C14.1702 1.32507 14.45 1.6049 14.45 1.95007L14.45 2.57507L16.325 2.57507C16.325 2.57507 16.8428 2.57507 17.2089 2.94119C17.2089 2.94119 17.575 3.3073 17.575 3.82507L17.575 16.3251C17.575 16.3251 17.575 16.8428 17.2089 17.209C17.2089 17.209 16.8428 17.5751 16.325 17.5751L3.82504 17.5751C3.82504 17.5751 3.30727 17.5751 2.94116 17.209C2.94116 17.209 2.57504 16.8428 2.57504 16.3251L2.57504 3.82507C2.57504 3.82507 2.57504 3.30731 2.94116 2.94119C2.94116 2.94119 3.30727 2.57507 3.82504 2.57507L5.70004 2.57507L5.70004 1.95007C5.70004 1.6049 5.97986 1.32507 6.32504 1.32507C6.67022 1.32507 6.95004 1.6049 6.95004 1.95007L6.95004 2.57507L13.2 2.57507ZM3.82504 7.57507L3.82504 16.3251L16.325 16.3251L16.325 7.57507L3.82504 7.57507ZM16.325 6.32507L3.82504 6.32507L3.82504 3.82507L5.70004 3.82507L5.70004 4.45007C5.70004 4.79525 5.97986 5.07507 6.32504 5.07507C6.67022 5.07507 6.95004 4.79525 6.95004 4.45007L6.95004 3.82507L13.2 3.82507L13.2 4.45007C13.2 4.79525 13.4799 5.07507 13.825 5.07507C14.1702 5.07507 14.45 4.79525 14.45 4.45007L14.45 3.82507L16.325 3.82507L16.325 6.32507Z" fill="#1C1C1C"/>
</svg>
