<svg width="21" height="21" viewBox="0 0 21 21" fill="none" xmlns="http://www.w3.org/2000/svg">
<path d="M10.2973 10.3008L10.3255 17.8007C10.3268 18.1459 10.6076 18.4247 10.9528 18.4234C11.298 18.4221 11.5768 18.1412 11.5755 17.796L11.5473 10.2961C11.546 9.9509 11.2651 9.67213 10.9199 9.67343C10.5747 9.67473 10.296 9.9556 10.2973 10.3008Z" fill="#242424"/>
<path d="M10.2738 4.05078L10.2879 7.80075C10.2892 8.14593 10.5701 8.42469 10.9153 8.4234C11.2605 8.4221 11.5392 8.14123 11.5379 7.79605L11.5238 4.04608C11.5225 3.7009 11.2417 3.42213 10.8965 3.42343C10.5513 3.42473 10.2725 3.7056 10.2738 4.05078Z" fill="#242424"/>
<path d="M16.5684 15.9039C16.2232 15.9052 15.9444 16.1861 15.9457 16.5312L15.9504 17.7812C15.9517 18.1264 16.2326 18.4052 16.5778 18.4039C16.9229 18.4026 17.2017 18.1217 17.2004 17.7765L17.1957 16.5265C17.1944 16.1814 16.9135 15.9026 16.5684 15.9039Z" fill="#242424"/>
<path d="M15.8988 4.03125L15.9364 14.0312C15.9377 14.3764 16.2186 14.6551 16.5638 14.6538C16.9089 14.6525 17.1877 14.3717 17.1864 14.0265L17.1488 4.02655C17.1475 3.68137 16.8667 3.4026 16.5215 3.4039C16.1763 3.4052 15.8975 3.68607 15.8988 4.03125Z" fill="#242424"/>
<path d="M18.4336 13.3937L14.6836 13.4078C14.3384 13.4091 14.0596 13.69 14.0609 14.0352C14.0622 14.3803 14.3431 14.6591 14.6883 14.6578L18.4383 14.6437C18.7834 14.6424 19.0622 14.3615 19.0609 14.0164C19.0596 13.6712 18.7787 13.3924 18.4336 13.3937Z" fill="#242424"/>
<path d="M4.68594 14.0703L4.70004 17.8203C4.70134 18.1655 4.98221 18.4442 5.32739 18.4429C5.67256 18.4416 5.95133 18.1608 5.95003 17.8156L5.93593 14.0656C5.93464 13.7204 5.65376 13.4417 5.30859 13.443C4.96341 13.4443 4.68465 13.7251 4.68594 14.0703Z" fill="#242424"/>
<path d="M4.64883 4.07031L4.67703 11.5703C4.67833 11.9154 4.9592 12.1942 5.30437 12.1929C5.64955 12.1916 5.92832 11.9107 5.92702 11.5656L5.89883 4.06561C5.89753 3.72043 5.61666 3.44167 5.27148 3.44296C4.9263 3.44426 4.64754 3.72513 4.64883 4.07031Z" fill="#242424"/>
<path d="M3.42852 12.2008L7.1785 12.1867C7.52367 12.1854 7.80244 11.9045 7.80114 11.5593C7.79984 11.2141 7.51897 10.9354 7.1738 10.9367L3.42382 10.9508C3.07865 10.9521 2.79988 11.2329 2.80118 11.5781C2.80248 11.9233 3.08335 12.2021 3.42852 12.2008Z" fill="#242424"/>
<path d="M12.7851 7.16715L9.03515 7.18124C8.68998 7.18254 8.41121 7.46341 8.41251 7.80859C8.4138 8.15376 8.69468 8.43253 9.03985 8.43124L12.7898 8.41714C13.135 8.41584 13.4138 8.13497 13.4125 7.78979C13.4112 7.44462 13.1303 7.16585 12.7851 7.16715Z" fill="#242424"/>
</svg>
