<svg width="20" height="21" viewBox="0 0 20 21" fill="none" xmlns="http://www.w3.org/2000/svg">
<path d="M10.625 4.37693C10.625 4.03175 10.3452 3.75193 10 3.75193C9.65482 3.75193 9.375 4.03175 9.375 4.37693V9.37693H4.375C4.02982 9.37693 3.75 9.65675 3.75 10.0019C3.75 10.3471 4.02982 10.6269 4.375 10.6269H9.375V15.6269C9.375 15.9721 9.65482 16.2519 10 16.2519C10.3452 16.2519 10.625 15.9721 10.625 15.6269V10.6269H15.625C15.9702 10.6269 16.25 10.3471 16.25 10.0019C16.25 9.65675 15.9702 9.37693 15.625 9.37693H10.625V4.37693Z" fill="#242424"/>
</svg>
